<?xml version="1.0" encoding="UTF-8"?>
<svg id="Layer_2" data-name="Layer 2" xmlns="http://www.w3.org/2000/svg" viewBox="0 0 3522.66 824.82">
  <defs>
    <style>
      .cls-1 {
        fill: #fff;
      }

      .cls-2 {
        fill: #bed4b6;
      }

      .cls-3 {
        fill: #60984c;
      }

      .cls-4 {
        fill: #00247d;
      }

      .cls-5 {
        fill: #7eab6e;
      }
    </style>
  </defs>
  <g id="Layer_1-2" data-name="Layer 1">
    <g>
      <g>
        <path class="cls-3" d="M266.46,0c16.66,4.36,35.84,2.19,46.73,18.47,10.03,14.99.11,26.67,3.8,34.68,2.48,5.36,16.68,13.86,22.49,16.12,32.99,12.8,49.31-6.75,78.55-5.03,19.74,1.17,36.87,11.85,55.69,15.93,8.76,1.9,29.47,1.36,33.44,3.29,6.03,2.94,3.78,9.74,0,13.74,4.65,2.04,11.62,2.94,15.68,5.46,13.29,8.27,40.17,76.49,50.16,94.85,18.5,34.03,41.57,65.97,64.56,97.05,1.21,1.42,2.32,2.28,4.29,2.26,7.02-.1,25.57-13.34,36.11-15.32,19.64-3.7,43.3,7.63,47.45,28.01,13.06,64.12-99.88,108.71-116.31,171.06-11.8,44.8,34.32,87.55-13.69,125.75-7.08,5.63-31.36,16.64-34,22.92-3.39,8.05,1.27,17.96.99,26.57-.76,23.76-15.12,27.16-25.54,42.48-6.6,9.7-10.23,24.08-16.53,34.86-22.88,39.13-77.58,65.82-122.52,64.94-37.52-.74-35.85-22.52-48.36-49.06-21.63-45.88-64.16-123.29-58.89-173.72,2.46-23.58,18.88-43.77,16.32-68.12-3.6-34.26-42.96-49.36-38.6-89.88.75-7.01,7.41-19.07,4.68-24.73-2.29-4.74-24.32-10.29-30.83-13.34-7.13-3.34-10.69-10.31-20.76-10.61-9.5-.28-26.78,9.33-37.21,12.4-74.07,21.81-119.81-.17-162.86-60.17-11.37-15.85-17.85-25.46-19.45-45.7-.62-2.93-1.23-5.98-1.84-9.17.05-.61-.05-1.23,0-1.83l2.68-29.02c-4.42-52.07,5.51-89.86,50.16-121.1,13.02-14.36,24.25-30.22,33.68-47.59C119.72,19.02,180.95-1.21,237.06,1.83c9.16-.55,18.35-1.17,27.56-1.83h1.84ZM505.31,97.23c-28.47,14.28-61.4-9.46-89.09-9.33-23.92.11-42.54,15.96-73.01,10.65-23.12-4.03-59.19-26.79-56.4-53.42.59-5.64,5.7-8.97.46-11.77-16.17-8.64-66.65-2.06-85.47,2.08-20.4,4.49-43.96,13.3-60.91,25.41-29.69,21.22-36.25,53.68-59.09,80.42-8.76,10.27-21.15,18.67-28.17,30.58-12.19,20.66-8.07,46.54-9.55,69.35-1.48,22.84-9.92,29.6,4.06,52.88,13.03,21.7,37.38,51.07,61.62,59.56,44.03,15.42,89.16-15.91,124.31.64,5.66,2.67,10.26,7.33,15.85,9.86,13.24,5.97,32.65,5.59,40.46,20.14,6.84,12.75,2.05,18.86,1.69,31.15-.72,25.05,23.43,35.5,35.77,54.35,35.22,53.79-4.06,81.11,5.33,132.26,6.87,37.43,26.61,79.31,37.09,117.06,2.5,9.02,10.92,54.54,15.01,57.01,14.13,8.56,46.65.21,60.68-7.14,42.75-22.42,42.26-54.97,62.74-89.62,3.36-5.68,15.87-18.14,16.51-20.27,3.46-11.59-7.28-27.43,1.86-47.61,9.68-21.36,44.96-31.49,48.78-45,3.14-11.11-10.02-38.7-11.52-52.1-6.49-58.26,24.77-92.17,63.15-129.18,21.09-20.34,48.03-37.09,59.75-65.09-.65-2.15-3.97-.57-5.52-.01-19.63,7.05-34.72,19.86-56.75,9.03-22.08-10.86-67.35-97.73-78.93-122.99-15.76-34.36-29.88-72.78-40.71-108.88Z"/>
        <path class="cls-5" d="M264.62,0l-4.43,1.92c-7.67.31-15.5-.61-23.13-.08V0h27.56Z"/>
        <path class="cls-2" d="M1.85,275.16H.02v-9.17c3.07,1.58,1.61,6.26,1.84,9.17Z"/>
      </g>
      <g>
        <path class="cls-4" d="M975.94,77.67h-76.07l-176.23,487.33h63.43l41.82-118.05h219.68l43.28,118.05h68.7l-184.61-487.33ZM845.84,399.13l91.01-256.87,94.18,256.87h-185.2Z"/>
        <path class="cls-4" d="M1812.46,353.88c.43-.12.85-.21,1.25-.24,72.23-5.82,127.77-61.74,127.77-135.48,0-67.2-30.3-115.94-103.43-134.23-16.99-4.24-34.46-6.25-51.96-6.25h-219.32v487.33h63.45v-206.37h115.16l133.97,206.37h75.41l-142.3-211.13ZM1630.22,308.81v-179.88h141.7c13.98,0,27.92,1.93,41.3,6.01,43.84,13.38,61.39,42.33,61.39,83.93h0c0,49.68-32.78,84.8-89.94,89.94h-154.44Z"/>
        <path class="cls-4" d="M3378.82,77.67h-226.5v487.33h63.45v-199.65h163.05c79.44,0,143.84-64.4,143.84-143.84h0c0-79.44-64.4-143.84-143.84-143.84ZM3352.12,314.77h-136.35v-185.84h141.7s98.5-.57,98.5,92.92-103.85,92.92-103.85,92.92Z"/>
        <polygon class="cls-4" points="2444.39 128.93 2444.39 284.9 2669.76 284.9 2669.76 333.01 2444.39 333.01 2444.39 513.75 2726.5 513.75 2726.5 565.01 2380.93 565.01 2380.93 77.67 2726.5 77.67 2726.5 128.93 2444.39 128.93"/>
        <polygon class="cls-4" points="3522.66 634.74 3522.66 824.82 599.35 824.82 695.43 634.74 3522.66 634.74"/>
        <g>
          <path class="cls-1" d="M771.6,752.53h-32.16l-5.92,16.4h-10.16l26.66-73.31h11.11l26.55,73.31h-10.16l-5.92-16.4ZM768.85,744.7l-13.33-37.24-13.33,37.24h26.66Z"/>
          <path class="cls-1" d="M809.31,767.07c-3.85-1.73-6.86-4.13-9.05-7.19-2.19-3.07-3.32-6.61-3.38-10.63h10.26c.35,3.46,1.78,6.37,4.28,8.73,2.5,2.36,6.15,3.54,10.95,3.54s8.2-1.15,10.84-3.44c2.64-2.29,3.97-5.24,3.97-8.83,0-2.82-.78-5.11-2.33-6.88-1.55-1.76-3.49-3.1-5.82-4.02-2.33-.92-5.47-1.9-9.42-2.96-4.87-1.27-8.76-2.54-11.69-3.81-2.93-1.27-5.43-3.26-7.51-5.98-2.08-2.71-3.12-6.36-3.12-10.95,0-4.02,1.02-7.58,3.07-10.69,2.04-3.1,4.92-5.5,8.62-7.19,3.7-1.69,7.95-2.54,12.75-2.54,6.91,0,12.57,1.73,16.98,5.18,4.41,3.46,6.89,8.04,7.46,13.75h-10.58c-.35-2.82-1.83-5.31-4.44-7.46-2.61-2.15-6.07-3.23-10.37-3.23-4.02,0-7.3,1.04-9.84,3.12-2.54,2.08-3.81,4.99-3.81,8.73,0,2.68.76,4.87,2.27,6.56,1.52,1.69,3.38,2.98,5.61,3.86,2.22.88,5.34,1.89,9.36,3.01,4.87,1.34,8.78,2.66,11.74,3.97,2.96,1.31,5.5,3.32,7.62,6.03,2.12,2.72,3.17,6.4,3.17,11.06,0,3.6-.95,6.98-2.86,10.16s-4.73,5.75-8.46,7.72c-3.74,1.98-8.15,2.96-13.22,2.96s-9.22-.86-13.06-2.59Z"/>
          <path class="cls-1" d="M871.09,767.07c-3.85-1.73-6.86-4.13-9.05-7.19-2.19-3.07-3.32-6.61-3.38-10.63h10.26c.35,3.46,1.78,6.37,4.28,8.73,2.5,2.36,6.15,3.54,10.95,3.54s8.2-1.15,10.84-3.44c2.64-2.29,3.97-5.24,3.97-8.83,0-2.82-.78-5.11-2.33-6.88-1.55-1.76-3.49-3.1-5.82-4.02-2.33-.92-5.47-1.9-9.42-2.96-4.87-1.27-8.76-2.54-11.69-3.81-2.93-1.27-5.43-3.26-7.51-5.98-2.08-2.71-3.12-6.36-3.12-10.95,0-4.02,1.02-7.58,3.07-10.69,2.04-3.1,4.92-5.5,8.62-7.19,3.7-1.69,7.95-2.54,12.75-2.54,6.91,0,12.57,1.73,16.98,5.18,4.41,3.46,6.89,8.04,7.46,13.75h-10.58c-.35-2.82-1.83-5.31-4.44-7.46-2.61-2.15-6.07-3.23-10.37-3.23-4.02,0-7.3,1.04-9.84,3.12-2.54,2.08-3.81,4.99-3.81,8.73,0,2.68.76,4.87,2.27,6.56,1.52,1.69,3.38,2.98,5.61,3.86,2.22.88,5.34,1.89,9.36,3.01,4.87,1.34,8.78,2.66,11.74,3.97,2.96,1.31,5.5,3.32,7.62,6.03,2.12,2.72,3.17,6.4,3.17,11.06,0,3.6-.95,6.98-2.86,10.16s-4.73,5.75-8.46,7.72c-3.74,1.98-8.15,2.96-13.22,2.96s-9.22-.86-13.06-2.59Z"/>
          <path class="cls-1" d="M937.26,764.85c-5.64-3.21-10.1-7.69-13.38-13.44-3.28-5.75-4.92-12.22-4.92-19.41s1.64-13.66,4.92-19.41c3.28-5.75,7.74-10.23,13.38-13.44,5.64-3.21,11.88-4.81,18.73-4.81s13.19,1.6,18.83,4.81c5.64,3.21,10.08,7.67,13.33,13.38,3.24,5.71,4.87,12.2,4.87,19.47s-1.62,13.75-4.87,19.47c-3.25,5.71-7.69,10.17-13.33,13.38-5.64,3.21-11.92,4.81-18.83,4.81s-13.08-1.6-18.73-4.81ZM969.9,757.71c4.13-2.4,7.37-5.82,9.73-10.26,2.36-4.44,3.54-9.59,3.54-15.45s-1.18-11.09-3.54-15.5c-2.36-4.41-5.59-7.81-9.68-10.21-4.09-2.4-8.75-3.6-13.96-3.6s-9.88,1.2-13.96,3.6c-4.09,2.4-7.32,5.8-9.68,10.21-2.36,4.41-3.54,9.57-3.54,15.5s1.18,11,3.54,15.45c2.36,4.44,5.61,7.86,9.73,10.26,4.13,2.4,8.76,3.6,13.91,3.6s9.79-1.2,13.91-3.6Z"/>
          <path class="cls-1" d="M1006.66,712.59c3.24-5.75,7.67-10.24,13.28-13.49,5.61-3.24,11.83-4.87,18.67-4.87,8.04,0,15.06,1.94,21.05,5.82,5.99,3.88,10.37,9.38,13.12,16.5h-11.53c-2.05-4.44-4.99-7.86-8.83-10.26-3.84-2.4-8.45-3.6-13.81-3.6s-9.77,1.2-13.86,3.6c-4.09,2.4-7.3,5.8-9.63,10.21-2.33,4.41-3.49,9.57-3.49,15.5s1.16,10.99,3.49,15.39c2.33,4.41,5.54,7.81,9.63,10.21,4.09,2.4,8.71,3.6,13.86,3.6s9.96-1.18,13.81-3.54c3.84-2.36,6.79-5.77,8.83-10.21h11.53c-2.75,7.05-7.12,12.5-13.12,16.34-6,3.84-13.01,5.77-21.05,5.77-6.84,0-13.07-1.6-18.67-4.81-5.61-3.21-10.03-7.67-13.28-13.38-3.24-5.71-4.87-12.17-4.87-19.36s1.62-13.66,4.87-19.41Z"/>
          <path class="cls-1" d="M1096.37,695.19v73.74h-9.63v-73.74h9.63Z"/>
          <path class="cls-1" d="M1156.03,752.53h-32.16l-5.92,16.4h-10.16l26.66-73.31h11.11l26.55,73.31h-10.16l-5.92-16.4ZM1153.28,744.7l-13.33-37.24-13.33,37.24h26.66Z"/>
          <path class="cls-1" d="M1228.82,695.19v7.83h-20.1v65.91h-9.63v-65.91h-20.21v-7.83h49.93Z"/>
          <path class="cls-1" d="M1249.98,695.19v73.74h-9.63v-73.74h9.63Z"/>
          <path class="cls-1" d="M1280.76,764.85c-5.64-3.21-10.1-7.69-13.38-13.44-3.28-5.75-4.92-12.22-4.92-19.41s1.64-13.66,4.92-19.41c3.28-5.75,7.74-10.23,13.38-13.44,5.64-3.21,11.88-4.81,18.73-4.81s13.19,1.6,18.83,4.81c5.64,3.21,10.08,7.67,13.33,13.38,3.24,5.71,4.87,12.2,4.87,19.47s-1.62,13.75-4.87,19.47c-3.25,5.71-7.69,10.17-13.33,13.38-5.64,3.21-11.92,4.81-18.83,4.81s-13.08-1.6-18.73-4.81ZM1313.4,757.71c4.13-2.4,7.37-5.82,9.73-10.26,2.36-4.44,3.54-9.59,3.54-15.45s-1.18-11.09-3.54-15.5c-2.36-4.41-5.59-7.81-9.68-10.21-4.09-2.4-8.75-3.6-13.96-3.6s-9.88,1.2-13.96,3.6c-4.09,2.4-7.32,5.8-9.68,10.21-2.36,4.41-3.54,9.57-3.54,15.5s1.18,11,3.54,15.45c2.36,4.44,5.61,7.86,9.73,10.26,4.13,2.4,8.76,3.6,13.91,3.6s9.79-1.2,13.91-3.6Z"/>
          <path class="cls-1" d="M1406.86,768.92h-9.63l-38.72-58.71v58.71h-9.63v-73.84h9.63l38.72,58.61v-58.61h9.63v73.84Z"/>
          <path class="cls-1" d="M1492.55,695.19v7.83h-32.05v24.86h26.03v7.83h-26.03v33.22h-9.63v-73.74h41.68Z"/>
          <path class="cls-1" d="M1518.58,764.85c-5.64-3.21-10.1-7.69-13.38-13.44-3.28-5.75-4.92-12.22-4.92-19.41s1.64-13.66,4.92-19.41c3.28-5.75,7.74-10.23,13.38-13.44,5.64-3.21,11.88-4.81,18.73-4.81s13.19,1.6,18.83,4.81c5.64,3.21,10.08,7.67,13.33,13.38,3.24,5.71,4.87,12.2,4.87,19.47s-1.62,13.75-4.87,19.47c-3.25,5.71-7.69,10.17-13.33,13.38-5.64,3.21-11.92,4.81-18.83,4.81s-13.08-1.6-18.73-4.81ZM1551.21,757.71c4.13-2.4,7.37-5.82,9.73-10.26,2.36-4.44,3.54-9.59,3.54-15.45s-1.18-11.09-3.54-15.5c-2.36-4.41-5.59-7.81-9.68-10.21-4.09-2.4-8.75-3.6-13.96-3.6s-9.88,1.2-13.96,3.6c-4.09,2.4-7.32,5.8-9.68,10.21-2.36,4.41-3.54,9.57-3.54,15.5s1.18,11,3.54,15.45c2.36,4.44,5.61,7.86,9.73,10.26,4.13,2.4,8.76,3.6,13.91,3.6s9.79-1.2,13.91-3.6Z"/>
          <path class="cls-1" d="M1625.53,768.92l-17.56-30.15h-11.64v30.15h-9.63v-73.74h23.8c5.57,0,10.28.95,14.12,2.86,3.84,1.9,6.72,4.48,8.62,7.72,1.9,3.24,2.86,6.95,2.86,11.11,0,5.08-1.46,9.56-4.39,13.44-2.93,3.88-7.32,6.45-13.17,7.72l18.51,30.89h-11.53ZM1596.33,731.05h14.18c5.22,0,9.13-1.29,11.74-3.86,2.61-2.57,3.91-6.01,3.91-10.31s-1.29-7.76-3.86-10.16c-2.58-2.4-6.51-3.6-11.79-3.6h-14.18v27.93Z"/>
          <path class="cls-1" d="M1717.46,768.92l-17.56-30.15h-11.64v30.15h-9.63v-73.74h23.8c5.57,0,10.28.95,14.12,2.86,3.84,1.9,6.72,4.48,8.62,7.72,1.9,3.24,2.86,6.95,2.86,11.11,0,5.08-1.46,9.56-4.39,13.44-2.93,3.88-7.32,6.45-13.17,7.72l18.51,30.89h-11.53ZM1688.26,731.05h14.18c5.22,0,9.13-1.29,11.74-3.86,2.61-2.57,3.91-6.01,3.91-10.31s-1.29-7.76-3.86-10.16c-2.58-2.4-6.51-3.6-11.79-3.6h-14.18v27.93Z"/>
          <path class="cls-1" d="M1752.26,703.02v24.65h26.87v7.93h-26.87v25.39h30.04v7.93h-39.67v-73.84h39.67v7.93h-30.04Z"/>
          <path class="cls-1" d="M1854.56,768.92h-9.63l-38.72-58.71v58.71h-9.63v-73.84h9.63l38.72,58.61v-58.61h9.63v73.84Z"/>
          <path class="cls-1" d="M1880.27,703.02v24.65h26.87v7.93h-26.87v25.39h30.04v7.93h-39.67v-73.84h39.67v7.93h-30.04Z"/>
          <path class="cls-1" d="M2017.27,695.19l-21.37,73.74h-10.79l-17.14-59.35-17.77,59.35-10.68.11-20.63-73.84h10.26l16.08,62.52,17.77-62.52h10.79l16.93,62.31,16.19-62.31h10.37Z"/>
          <path class="cls-1" d="M2071.11,752.53h-32.16l-5.92,16.4h-10.16l26.66-73.31h11.11l26.55,73.31h-10.16l-5.92-16.4ZM2068.36,744.7l-13.33-37.24-13.33,37.24h26.66Z"/>
          <path class="cls-1" d="M2142.79,734.23c2.22,1.76,3.98,3.95,5.29,6.56,1.3,2.61,1.96,5.4,1.96,8.36,0,3.74-.95,7.11-2.86,10.1-1.9,3-4.67,5.36-8.3,7.09-3.63,1.73-7.92,2.59-12.85,2.59h-27.51v-73.74h26.45c5.01,0,9.27.83,12.8,2.49,3.53,1.66,6.17,3.9,7.93,6.72,1.76,2.82,2.64,6,2.64,9.52,0,4.37-1.18,7.99-3.54,10.84-2.36,2.86-5.48,4.92-9.36,6.19,2.68.42,5.13,1.52,7.35,3.28ZM2108.14,727.03h16.19c4.51,0,8-1.06,10.47-3.17,2.47-2.12,3.7-5.04,3.7-8.78s-1.23-6.66-3.7-8.78c-2.47-2.12-6.03-3.17-10.69-3.17h-15.97v23.91ZM2136.39,757.6c2.68-2.26,4.02-5.4,4.02-9.42s-1.41-7.32-4.23-9.68c-2.82-2.36-6.6-3.54-11.32-3.54h-16.72v26.02h17.03c4.79,0,8.53-1.13,11.21-3.39Z"/>
          <path class="cls-1" d="M2172.67,761.1h25.81v7.83h-35.44v-73.74h9.63v65.91Z"/>
          <path class="cls-1" d="M2218.06,703.02v24.65h26.87v7.93h-26.87v25.39h30.04v7.93h-39.67v-73.84h39.67v7.93h-30.04Z"/>
          <path class="cls-1" d="M2299.94,703.02v24.65h26.87v7.93h-26.87v25.39h30.04v7.93h-39.67v-73.84h39.67v7.93h-30.04Z"/>
          <path class="cls-1" d="M2402.24,768.92h-9.63l-38.72-58.71v58.71h-9.63v-73.84h9.63l38.72,58.61v-58.61h9.63v73.84Z"/>
          <path class="cls-1" d="M2427.94,703.02v24.65h26.87v7.93h-26.87v25.39h30.04v7.93h-39.67v-73.84h39.67v7.93h-30.04Z"/>
          <path class="cls-1" d="M2511.09,768.92l-17.56-30.15h-11.64v30.15h-9.63v-73.74h23.8c5.57,0,10.28.95,14.12,2.86,3.84,1.9,6.72,4.48,8.62,7.72,1.9,3.24,2.86,6.95,2.86,11.11,0,5.08-1.46,9.56-4.39,13.44-2.93,3.88-7.32,6.45-13.17,7.72l18.51,30.89h-11.53ZM2481.89,731.05h14.18c5.22,0,9.13-1.29,11.74-3.86,2.61-2.57,3.91-6.01,3.91-10.31s-1.29-7.76-3.86-10.16c-2.58-2.4-6.51-3.6-11.79-3.6h-14.18v27.93Z"/>
          <path class="cls-1" d="M2592.13,716.56c-2.05-4.3-5.01-7.63-8.89-10-3.88-2.36-8.39-3.54-13.54-3.54s-9.79,1.18-13.91,3.54c-4.13,2.36-7.37,5.75-9.73,10.16-2.36,4.41-3.54,9.5-3.54,15.29s1.18,10.86,3.54,15.23c2.36,4.37,5.61,7.74,9.73,10.1,4.13,2.36,8.76,3.54,13.91,3.54,7.19,0,13.12-2.15,17.77-6.45,4.66-4.3,7.37-10.12,8.15-17.46h-29.41v-7.83h39.67v7.41c-.56,6.07-2.47,11.62-5.71,16.66-3.25,5.04-7.51,9.03-12.8,11.95-5.29,2.93-11.18,4.39-17.67,4.39-6.84,0-13.08-1.6-18.73-4.81-5.64-3.21-10.1-7.67-13.38-13.38-3.28-5.71-4.92-12.17-4.92-19.36s1.64-13.66,4.92-19.41c3.28-5.75,7.74-10.23,13.38-13.44,5.64-3.21,11.88-4.81,18.73-4.81,7.83,0,14.76,1.94,20.79,5.82,6.03,3.88,10.42,9.35,13.17,16.4h-11.53Z"/>
          <path class="cls-1" d="M2669.88,695.19l-24.01,45.91v27.82h-9.63v-27.82l-24.12-45.91h10.69l18.2,37.34,18.2-37.34h10.68Z"/>
          <path class="cls-1" d="M2750.66,732.06c-4.2,4.06-10.6,6.08-19.2,6.08h-14.18v30.79h-9.63v-73.74h23.8c8.32,0,14.65,2.01,18.99,6.03,4.34,4.02,6.51,9.2,6.51,15.55s-2.1,11.23-6.29,15.29ZM2743.3,726.71c2.54-2.33,3.81-5.64,3.81-9.94,0-9.1-5.22-13.65-15.66-13.65h-14.18v27.08h14.18c5.36,0,9.31-1.16,11.85-3.49Z"/>
          <path class="cls-1" d="M2807.41,768.92l-17.56-30.15h-11.64v30.15h-9.63v-73.74h23.8c5.57,0,10.28.95,14.12,2.86,3.84,1.9,6.72,4.48,8.62,7.72,1.9,3.24,2.86,6.95,2.86,11.11,0,5.08-1.46,9.56-4.39,13.44-2.93,3.88-7.32,6.45-13.17,7.72l18.51,30.89h-11.53ZM2778.21,731.05h14.18c5.22,0,9.13-1.29,11.74-3.86,2.61-2.57,3.91-6.01,3.91-10.31s-1.29-7.76-3.86-10.16c-2.58-2.4-6.51-3.6-11.79-3.6h-14.18v27.93Z"/>
          <path class="cls-1" d="M2876.17,752.53h-32.16l-5.92,16.4h-10.16l26.66-73.31h11.11l26.55,73.31h-10.16l-5.92-16.4ZM2873.42,744.7l-13.33-37.24-13.33,37.24h26.66Z"/>
          <path class="cls-1" d="M2904.84,712.59c3.24-5.75,7.67-10.24,13.28-13.49,5.61-3.24,11.83-4.87,18.67-4.87,8.04,0,15.06,1.94,21.05,5.82,5.99,3.88,10.37,9.38,13.12,16.5h-11.53c-2.05-4.44-4.99-7.86-8.83-10.26-3.84-2.4-8.45-3.6-13.81-3.6s-9.77,1.2-13.86,3.6c-4.09,2.4-7.3,5.8-9.63,10.21-2.33,4.41-3.49,9.57-3.49,15.5s1.16,10.99,3.49,15.39c2.33,4.41,5.54,7.81,9.63,10.21,4.09,2.4,8.71,3.6,13.86,3.6s9.96-1.18,13.81-3.54c3.84-2.36,6.79-5.77,8.83-10.21h11.53c-2.75,7.05-7.12,12.5-13.12,16.34-6,3.84-13.01,5.77-21.05,5.77-6.84,0-13.07-1.6-18.67-4.81-5.61-3.21-10.03-7.67-13.28-13.38-3.24-5.71-4.87-12.17-4.87-19.36s1.62-13.66,4.87-19.41Z"/>
          <path class="cls-1" d="M3030.31,695.19v7.83h-20.1v65.91h-9.63v-65.91h-20.21v-7.83h49.93Z"/>
          <path class="cls-1" d="M3051.47,695.19v73.74h-9.63v-73.74h9.63Z"/>
          <path class="cls-1" d="M3112.93,695.19v7.83h-20.1v65.91h-9.63v-65.91h-20.21v-7.83h49.93Z"/>
          <path class="cls-1" d="M3134.09,695.19v73.74h-9.63v-73.74h9.63Z"/>
          <path class="cls-1" d="M3164.87,764.85c-5.64-3.21-10.1-7.69-13.38-13.44-3.28-5.75-4.92-12.22-4.92-19.41s1.64-13.66,4.92-19.41c3.28-5.75,7.74-10.23,13.38-13.44,5.64-3.21,11.88-4.81,18.73-4.81s13.19,1.6,18.83,4.81c5.64,3.21,10.08,7.67,13.33,13.38,3.24,5.71,4.87,12.2,4.87,19.47s-1.62,13.75-4.87,19.47c-3.25,5.71-7.69,10.17-13.33,13.38-5.64,3.21-11.92,4.81-18.83,4.81s-13.08-1.6-18.73-4.81ZM3197.51,757.71c4.13-2.4,7.37-5.82,9.73-10.26,2.36-4.44,3.54-9.59,3.54-15.45s-1.18-11.09-3.54-15.5c-2.36-4.41-5.59-7.81-9.68-10.21-4.09-2.4-8.75-3.6-13.96-3.6s-9.88,1.2-13.96,3.6c-4.09,2.4-7.32,5.8-9.68,10.21-2.36,4.41-3.54,9.57-3.54,15.5s1.18,11,3.54,15.45c2.36,4.44,5.61,7.86,9.73,10.26,4.13,2.4,8.76,3.6,13.91,3.6s9.79-1.2,13.91-3.6Z"/>
          <path class="cls-1" d="M3290.97,768.92h-9.63l-38.72-58.71v58.71h-9.63v-73.84h9.63l38.72,58.61v-58.61h9.63v73.84Z"/>
          <path class="cls-1" d="M3316.68,703.02v24.65h26.87v7.93h-26.87v25.39h30.04v7.93h-39.67v-73.84h39.67v7.93h-30.04Z"/>
          <path class="cls-1" d="M3399.83,768.92l-17.56-30.15h-11.64v30.15h-9.63v-73.74h23.8c5.57,0,10.28.95,14.12,2.86,3.84,1.9,6.72,4.48,8.62,7.72,1.9,3.24,2.86,6.95,2.86,11.11,0,5.08-1.46,9.56-4.39,13.44-2.93,3.88-7.32,6.45-13.17,7.72l18.51,30.89h-11.53ZM3370.63,731.05h14.18c5.22,0,9.13-1.29,11.74-3.86,2.61-2.57,3.91-6.01,3.91-10.31s-1.29-7.76-3.86-10.16c-2.58-2.4-6.51-3.6-11.79-3.6h-14.18v27.93Z"/>
          <path class="cls-1" d="M3435.32,767.07c-3.85-1.73-6.86-4.13-9.05-7.19-2.19-3.07-3.32-6.61-3.38-10.63h10.26c.35,3.46,1.78,6.37,4.28,8.73,2.5,2.36,6.15,3.54,10.95,3.54s8.2-1.15,10.84-3.44c2.64-2.29,3.97-5.24,3.97-8.83,0-2.82-.78-5.11-2.33-6.88-1.55-1.76-3.49-3.1-5.82-4.02-2.33-.92-5.47-1.9-9.42-2.96-4.87-1.27-8.76-2.54-11.69-3.81-2.93-1.27-5.43-3.26-7.51-5.98-2.08-2.71-3.12-6.36-3.12-10.95,0-4.02,1.02-7.58,3.07-10.69,2.04-3.1,4.92-5.5,8.62-7.19,3.7-1.69,7.95-2.54,12.75-2.54,6.91,0,12.57,1.73,16.98,5.18,4.41,3.46,6.89,8.04,7.46,13.75h-10.58c-.35-2.82-1.83-5.31-4.44-7.46-2.61-2.15-6.07-3.23-10.37-3.23-4.02,0-7.3,1.04-9.84,3.12-2.54,2.08-3.81,4.99-3.81,8.73,0,2.68.76,4.87,2.27,6.56,1.52,1.69,3.38,2.98,5.61,3.86,2.22.88,5.34,1.89,9.36,3.01,4.87,1.34,8.78,2.66,11.74,3.97,2.96,1.31,5.5,3.32,7.62,6.03,2.12,2.72,3.17,6.4,3.17,11.06,0,3.6-.95,6.98-2.86,10.16s-4.73,5.75-8.46,7.72c-3.74,1.98-8.15,2.96-13.22,2.96s-9.22-.86-13.06-2.59Z"/>
        </g>
      </g>
    </g>
  </g>
</svg>