<?xml version="1.0" encoding="UTF-8"?>
<svg id="Layer_2" data-name="Layer 2" xmlns="http://www.w3.org/2000/svg" viewBox="0 0 1083.74 335.95">
  <defs>
    <style>
      .cls-1 {
        fill: #b82837;
      }
    </style>
  </defs>
  <g id="Layer_1-2" data-name="Layer 1">
    <g>
      <path d="M666.25,282.23c-10.46,32.01-44.91,53.71-80.48,53.71-21.91,0-44.34-8.41-60.15-22.54-17.49-15.45-26.23-36.33-26.23-58.58,0-43.95,39.12-79.21,86.09-79.21,35.6,0,71.16,22.53,80.76,55.09h-44.05c-8.47-13.29-20.7-19.55-37.32-19.55-27.73,0-46.67,19.26-46.67,44.23,0,26.57,20.42,45.28,48.69,45.28,14.32,0,28.05-7.31,35.3-18.43"/>
      <path d="M717.92,163.13h-38.81v-32.82h38.81v32.82ZM717.92,331.04h-38.81v-150.52h38.81v150.52Z"/>
      <path class="cls-1" d="M897.89,331.04h-35.88v-20.35h-.56c-11.38,16.55-32.67,25.25-53.69,25.25-46.37,0-80.24-38.53-80.24-79.48s27.12-79.49,81.43-80.85c18.63-.53,37.65,7.06,49.89,20.63v-65.93h39.06M861.45,255.65c0-24.93-21.91-44.49-48.46-44.49-24.77,0-46.7,20.61-46.7,43.67,0,24.98,20.14,45.85,47.28,45.85s47.88-20.36,47.88-45.03"/>
      <path d="M1083.73,255.93c.29,18.16-7.86,40.68-20.7,54.76-14.3,16.3-37.05,25.25-59.53,25.25s-42.01-7.6-54.23-25.25h-.62v20.36h-35.59v-200.72h38.83v66.2h.57c10.79-14.91,31.48-20.91,49.89-20.91,47.53,0,81.37,37.98,81.37,80.31M1044.94,256.18c0-24.93-18.95-45.02-46.65-45.02-25.99,0-48.75,17.91-48.75,42.88,0,26.29,19.57,46.63,48.75,46.63,27.41,0,46.65-19.24,46.65-44.49"/>
      <polyline class="cls-1" points="164.83 218.22 164.83 167.97 211.12 167.97 211.12 67.41 70.29 167.98 116.57 167.98 116.57 135.02 164.82 135.02 164.82 251.18 211.11 251.18 211.11 301.42 164.82 301.42 164.82 334.37 211.12 334.37 211.12 218.22"/>
      <path class="cls-1" d="M305.68,218.22h-46.32v32.97h46.32v-32.97ZM259.37,167.98h46.31V0l-94.56,67.41h48.25v100.57ZM305.68,301.41h-46.32v32.97h46.32v-32.97Z"/>
      <path class="cls-1" d="M400.21,218.22h-46.31v32.97h46.31M353.9,167.98h46.31v-50.09l-46.31-33.1v83.19ZM353.9,334.38h46.31v-32.97h-46.31v32.97Z"/>
      <path class="cls-1" d="M116.56,218.22h-46.29v32.96h46.29v-32.96ZM70.28,334.38h46.29v-32.97h-46.29v32.97Z"/>
      <rect x="353.9" y="167.98" width="116.59" height="50.24"/>
      <polygon points="70.29 167.98 .01 218.23 116.58 218.23 116.58 167.98 70.29 167.98"/>
      <rect x="164.83" y="167.98" width="140.85" height="50.24"/>
      <polygon points="259.36 251.18 259.36 301.42 400.22 301.42 470.5 251.18 259.36 251.18"/>
      <rect y="251.18" width="211.1" height="50.23"/>
    </g>
  </g>
</svg>