<?xml version="1.0" encoding="UTF-8"?>
<svg id="Layer_2" data-name="Layer 2" xmlns="http://www.w3.org/2000/svg" xmlns:xlink="http://www.w3.org/1999/xlink" viewBox="0 0 1380.58 552.5">
  <defs>
    <style>
      .cls-1, .cls-2 {
        stroke: #231f20;
      }

      .cls-1, .cls-2, .cls-3, .cls-4, .cls-5, .cls-6, .cls-7 {
        fill: none;
      }

      .cls-1, .cls-2, .cls-4, .cls-6, .cls-7 {
        stroke-miterlimit: 3.86;
      }

      .cls-8, .cls-9, .cls-10, .cls-11, .cls-12, .cls-13, .cls-14 {
        fill-rule: evenodd;
      }

      .cls-8, .cls-15 {
        fill: #731805;
      }

      .cls-2 {
        stroke-width: .07px;
      }

      .cls-9, .cls-16 {
        fill: #9f5a09;
      }

      .cls-17, .cls-12 {
        fill: #fff;
      }

      .cls-10, .cls-18 {
        fill: #006532;
      }

      .cls-19 {
        fill: #faab18;
      }

      .cls-11, .cls-20 {
        fill: #231f20;
      }

      .cls-21, .cls-13 {
        fill: #c38910;
      }

      .cls-22 {
        fill: #f48120;
      }

      .cls-23 {
        fill: #cbad6c;
      }

      .cls-24 {
        fill: #9b753d;
      }

      .cls-4 {
        stroke: #006532;
      }

      .cls-14, .cls-25 {
        fill: #dec16a;
      }

      .cls-5 {
        stroke: #fff;
        stroke-linecap: round;
        stroke-linejoin: round;
        stroke-width: .25px;
      }

      .cls-6 {
        stroke: #9b753d;
      }

      .cls-26 {
        fill: #ec1c24;
      }

      .cls-7 {
        stroke: #dec16a;
        stroke-width: .04px;
      }

      .cls-27 {
        clip-path: url(#clippath);
      }
    </style>
    <clipPath id="clippath">
      <path class="cls-3" d="M124.05,328.18c0-14.57,2.88-28.53,8.17-41.45-.03.21,55.69-10.21,55.69-10.35.23-.09,57.81,10.56,57.41,10.64,5.21,12.84,8.04,26.69,8.04,41.16,0,37.12-18.74,70.33-48.23,92.5,0,0-4.3,3.71-8.21,6.16-3.92,2.46-8.22,4.4-8.22,4.4,0,0-4.37-2.16-9.42-5.36-5.04-3.2-7.01-5.2-7.01-5.2-29.5-22.17-48.24-55.38-48.24-92.5"/>
    </clipPath>
  </defs>
  <g id="Layer_1-2" data-name="Layer 1">
    <g>
      <g>
        <polyline class="cls-20" points="459.34 217.63 1377.17 217.51 1377.17 225.39 459.34 225.51 459.34 217.63"/>
        <g>
          <g>
            <path class="cls-20" d="M458.85,362.88v-45.39h6.01v40.04h22.36v5.36h-28.36Z"/>
            <path class="cls-20" d="M514.86,358.82c-2.06,1.75-4.05,2.99-5.96,3.72-1.91.72-3.96,1.08-6.15,1.08-3.61,0-6.39-.88-8.33-2.65-1.94-1.77-2.91-4.02-2.91-6.77,0-1.61.37-3.08,1.1-4.41.73-1.33,1.69-2.4,2.88-3.21,1.19-.8,2.52-1.41,4.01-1.83,1.09-.29,2.75-.57,4.95-.84,4.5-.54,7.81-1.18,9.94-1.92.02-.76.03-1.25.03-1.46,0-2.27-.53-3.87-1.58-4.8-1.42-1.26-3.54-1.89-6.35-1.89-2.62,0-4.56.46-5.81,1.38-1.25.92-2.17,2.54-2.77,4.88l-5.45-.74c.5-2.33,1.31-4.22,2.45-5.65,1.14-1.43,2.78-2.54,4.92-3.31,2.15-.77,4.63-1.16,7.46-1.16s5.09.33,6.84.99c1.75.66,3.04,1.49,3.87,2.49.83,1,1.4,2.27,1.73,3.79.19.95.28,2.66.28,5.14v7.43c0,5.18.12,8.46.36,9.83.24,1.37.71,2.69,1.41,3.95h-5.82c-.58-1.16-.95-2.51-1.11-4.06ZM514.39,346.37c-2.02.83-5.06,1.53-9.1,2.11-2.29.33-3.91.7-4.86,1.11s-1.68,1.02-2.2,1.81c-.52.79-.77,1.68-.77,2.65,0,1.49.56,2.72,1.69,3.72,1.12.99,2.77,1.49,4.94,1.49s4.06-.47,5.73-1.41c1.67-.94,2.9-2.22,3.69-3.85.6-1.26.9-3.12.9-5.57v-2.04Z"/>
            <path class="cls-20" d="M533.55,362.88h-5.17v-45.39h5.57v16.19c2.35-2.95,5.36-4.43,9.01-4.43,2.02,0,3.94.41,5.74,1.22,1.81.82,3.29,1.96,4.46,3.44,1.17,1.48,2.08,3.26,2.74,5.34s.99,4.31.99,6.69c0,5.64-1.39,9.99-4.18,13.07-2.79,3.08-6.13,4.61-10.03,4.61s-6.93-1.62-9.13-4.86v4.12ZM533.49,346.19c0,3.94.54,6.79,1.61,8.55,1.75,2.87,4.13,4.3,7.12,4.3,2.44,0,4.54-1.06,6.32-3.17,1.78-2.12,2.66-5.27,2.66-9.46s-.85-7.46-2.55-9.51c-1.7-2.04-3.76-3.07-6.18-3.07s-4.54,1.06-6.32,3.17c-1.78,2.12-2.66,5.18-2.66,9.18Z"/>
            <path class="cls-20" d="M561.36,346.44c0-6.09,1.69-10.6,5.08-13.53,2.83-2.44,6.28-3.65,10.34-3.65,4.52,0,8.22,1.48,11.09,4.44,2.87,2.96,4.3,7.06,4.3,12.28,0,4.23-.63,7.56-1.9,9.99s-3.12,4.31-5.54,5.65-5.07,2.01-7.94,2.01c-4.6,0-8.32-1.48-11.16-4.43-2.84-2.95-4.26-7.2-4.26-12.76ZM567.08,346.44c0,4.21.92,7.36,2.76,9.46s4.15,3.14,6.94,3.14,5.07-1.05,6.91-3.16c1.84-2.11,2.76-5.32,2.76-9.63,0-4.07-.92-7.15-2.77-9.24-1.85-2.09-4.14-3.14-6.89-3.14s-5.1,1.04-6.94,3.13c-1.84,2.09-2.76,5.23-2.76,9.44Z"/>
            <path class="cls-20" d="M620,362.88v-4.83c-2.56,3.72-6.04,5.57-10.44,5.57-1.94,0-3.75-.37-5.43-1.11-1.68-.74-2.93-1.68-3.75-2.8-.82-1.12-1.39-2.5-1.72-4.13-.23-1.09-.34-2.83-.34-5.2v-20.37h5.57v18.24c0,2.91.11,4.87.34,5.88.35,1.47,1.09,2.62,2.23,3.45,1.13.84,2.54,1.25,4.21,1.25s3.24-.43,4.71-1.29c1.47-.86,2.5-2.02,3.11-3.5.61-1.48.91-3.62.91-6.43v-17.62h5.57v32.88h-4.99Z"/>
            <path class="cls-20" d="M633.4,362.88v-32.88h5.02v4.98c1.28-2.33,2.46-3.87,3.55-4.61,1.08-.74,2.28-1.11,3.58-1.11,1.88,0,3.79.6,5.73,1.8l-1.92,5.17c-1.36-.81-2.72-1.21-4.09-1.21-1.22,0-2.31.37-3.28,1.1-.97.73-1.66,1.75-2.07,3.05-.62,1.98-.93,4.15-.93,6.5v17.22h-5.57Z"/>
          </g>
          <g>
            <path class="cls-20" d="M459.29,294.01v-45.39h15.64c3.53,0,6.22.22,8.08.65,2.6.6,4.82,1.68,6.66,3.25,2.39,2.02,4.19,4.61,5.37,7.76s1.78,6.75,1.78,10.79c0,3.45-.4,6.5-1.21,9.17s-1.84,4.87-3.1,6.61c-1.26,1.74-2.64,3.12-4.13,4.12-1.5,1-3.3,1.76-5.42,2.28-2.12.52-4.55.77-7.29.77h-16.38ZM465.3,288.65h9.69c2.99,0,5.34-.28,7.04-.84,1.7-.56,3.06-1.34,4.07-2.35,1.42-1.42,2.53-3.34,3.33-5.74.79-2.4,1.19-5.32,1.19-8.75,0-4.75-.78-8.4-2.34-10.95-1.56-2.55-3.45-4.26-5.68-5.12-1.61-.62-4.2-.93-7.77-.93h-9.54v34.68Z"/>
            <path class="cls-20" d="M526.89,283.42l5.76.71c-.91,3.37-2.59,5.98-5.05,7.83-2.46,1.86-5.59,2.79-9.41,2.79-4.81,0-8.62-1.48-11.44-4.44-2.82-2.96-4.23-7.12-4.23-12.46s1.42-9.83,4.27-12.88c2.85-3.05,6.54-4.58,11.08-4.58s7.99,1.5,10.78,4.49,4.18,7.2,4.18,12.63c0,.33-.01.83-.03,1.49h-24.52c.21,3.61,1.23,6.38,3.07,8.3,1.84,1.92,4.13,2.88,6.87,2.88,2.04,0,3.79-.54,5.23-1.61,1.44-1.07,2.59-2.79,3.44-5.14ZM508.59,274.41h18.36c-.25-2.77-.95-4.84-2.11-6.22-1.78-2.15-4.08-3.22-6.91-3.22-2.56,0-4.71.86-6.46,2.57-1.74,1.71-2.71,4-2.9,6.87Z"/>
            <path class="cls-20" d="M539.65,306.61v-45.49h5.08v4.27c1.2-1.67,2.55-2.93,4.06-3.76,1.51-.84,3.33-1.25,5.48-1.25,2.81,0,5.28.72,7.43,2.17s3.77,3.48,4.86,6.12c1.09,2.63,1.64,5.52,1.64,8.65,0,3.36-.6,6.39-1.81,9.09-1.21,2.69-2.96,4.76-5.26,6.19-2.3,1.43-4.72,2.15-7.26,2.15-1.86,0-3.53-.39-5-1.18-1.48-.78-2.69-1.77-3.64-2.97v16.01h-5.57ZM544.69,277.76c0,4.23.86,7.36,2.57,9.38,1.71,2.02,3.79,3.03,6.22,3.03s4.6-1.05,6.36-3.14,2.65-5.34,2.65-9.74-.86-7.33-2.59-9.41c-1.72-2.08-3.78-3.13-6.18-3.13s-4.47,1.11-6.3,3.33c-1.83,2.22-2.74,5.45-2.74,9.68Z"/>
            <path class="cls-20" d="M596.37,289.96c-2.06,1.75-4.05,2.99-5.96,3.72-1.91.72-3.96,1.08-6.15,1.08-3.61,0-6.39-.88-8.33-2.65-1.94-1.77-2.91-4.02-2.91-6.77,0-1.61.37-3.08,1.1-4.41.73-1.33,1.69-2.4,2.88-3.21,1.19-.8,2.52-1.41,4.01-1.83,1.09-.29,2.75-.57,4.95-.84,4.5-.54,7.81-1.18,9.94-1.92.02-.76.03-1.25.03-1.46,0-2.27-.53-3.87-1.58-4.8-1.42-1.26-3.54-1.89-6.35-1.89-2.62,0-4.56.46-5.81,1.38-1.25.92-2.17,2.54-2.77,4.88l-5.45-.74c.5-2.33,1.31-4.22,2.45-5.65,1.14-1.43,2.78-2.54,4.92-3.31,2.15-.77,4.63-1.16,7.46-1.16s5.09.33,6.84.99c1.75.66,3.04,1.49,3.87,2.49.83,1,1.4,2.27,1.73,3.79.19.95.28,2.66.28,5.14v7.43c0,5.18.12,8.46.36,9.83.24,1.37.71,2.69,1.41,3.95h-5.82c-.58-1.16-.95-2.51-1.11-4.06ZM595.91,277.51c-2.02.83-5.06,1.53-9.1,2.11-2.29.33-3.91.7-4.86,1.11s-1.68,1.02-2.2,1.81c-.52.79-.77,1.68-.77,2.65,0,1.49.56,2.72,1.69,3.72,1.12.99,2.77,1.49,4.94,1.49s4.06-.47,5.73-1.41c1.67-.94,2.9-2.22,3.69-3.85.6-1.26.9-3.12.9-5.57v-2.04Z"/>
            <path class="cls-20" d="M610.12,294.01v-32.88h5.02v4.98c1.28-2.33,2.46-3.87,3.55-4.61,1.08-.74,2.28-1.11,3.58-1.11,1.88,0,3.79.6,5.73,1.8l-1.92,5.17c-1.36-.81-2.72-1.21-4.09-1.21-1.22,0-2.31.37-3.28,1.1-.97.73-1.66,1.75-2.07,3.05-.62,1.98-.93,4.15-.93,6.5v17.22h-5.57Z"/>
            <path class="cls-20" d="M643.47,289.03l.81,4.92c-1.57.33-2.97.5-4.21.5-2.02,0-3.59-.32-4.71-.96s-1.9-1.48-2.35-2.52c-.45-1.04-.68-3.24-.68-6.58v-18.92h-4.09v-4.33h4.09v-8.14l5.54-3.34v11.49h5.6v4.33h-5.6v19.23c0,1.59.1,2.61.29,3.07.2.45.52.82.96,1.08.44.27,1.08.4,1.9.4.62,0,1.43-.07,2.45-.22Z"/>
            <path class="cls-20" d="M648.92,294.01v-32.88h4.99v4.61c1.03-1.61,2.4-2.91,4.12-3.89s3.66-1.47,5.85-1.47c2.44,0,4.43.51,5.99,1.52,1.56,1.01,2.66,2.43,3.3,4.24,2.6-3.84,5.99-5.76,10.16-5.76,3.26,0,5.77.9,7.52,2.71,1.75,1.81,2.63,4.59,2.63,8.35v22.57h-5.54v-20.72c0-2.23-.18-3.83-.54-4.81-.36-.98-1.02-1.77-1.97-2.37-.95-.6-2.06-.9-3.34-.9-2.31,0-4.23.77-5.76,2.31-1.53,1.54-2.29,4-2.29,7.39v19.1h-5.57v-21.37c0-2.48-.45-4.33-1.36-5.57-.91-1.24-2.4-1.86-4.46-1.86-1.57,0-3.02.41-4.35,1.24-1.33.83-2.3,2.03-2.9,3.62-.6,1.59-.9,3.88-.9,6.87v17.06h-5.57Z"/>
            <path class="cls-20" d="M724.26,283.42l5.76.71c-.91,3.37-2.59,5.98-5.05,7.83-2.46,1.86-5.59,2.79-9.41,2.79-4.81,0-8.62-1.48-11.44-4.44-2.82-2.96-4.23-7.12-4.23-12.46s1.42-9.83,4.27-12.88c2.85-3.05,6.54-4.58,11.08-4.58s7.99,1.5,10.78,4.49,4.18,7.2,4.18,12.63c0,.33-.01.83-.03,1.49h-24.52c.21,3.61,1.23,6.38,3.07,8.3,1.84,1.92,4.13,2.88,6.87,2.88,2.04,0,3.79-.54,5.23-1.61,1.44-1.07,2.59-2.79,3.44-5.14ZM705.96,274.41h18.36c-.25-2.77-.95-4.84-2.11-6.22-1.78-2.15-4.08-3.22-6.91-3.22-2.56,0-4.71.86-6.46,2.57-1.74,1.71-2.71,4-2.9,6.87Z"/>
            <path class="cls-20" d="M737.01,294.01v-32.88h5.02v4.68c2.42-3.61,5.9-5.42,10.47-5.42,1.98,0,3.8.36,5.47,1.07,1.66.71,2.91,1.65,3.73,2.8s1.4,2.53,1.73,4.12c.21,1.03.31,2.84.31,5.42v20.22h-5.57v-20c0-2.27-.22-3.97-.65-5.09s-1.2-2.02-2.31-2.69c-1.1-.67-2.4-1.01-3.89-1.01-2.37,0-4.42.75-6.15,2.26s-2.59,4.37-2.59,8.58v17.96h-5.57Z"/>
            <path class="cls-20" d="M784.45,289.03l.81,4.92c-1.57.33-2.97.5-4.21.5-2.02,0-3.59-.32-4.71-.96s-1.9-1.48-2.35-2.52c-.45-1.04-.68-3.24-.68-6.58v-18.92h-4.09v-4.33h4.09v-8.14l5.54-3.34v11.49h5.6v4.33h-5.6v19.23c0,1.59.1,2.61.29,3.07.2.45.52.82.96,1.08.44.27,1.08.4,1.9.4.62,0,1.43-.07,2.45-.22Z"/>
            <path class="cls-20" d="M791.45,267.48v-6.35h6.35v6.35h-6.35ZM791.45,294.01v-6.35h6.35v6.35h-6.35Z"/>
          </g>
          <g>
            <path class="cls-20" d="M458.92,432v-45.39h19.29c4.85,0,8.38.41,10.57,1.22,2.2.82,3.96,2.27,5.28,4.35,1.32,2.09,1.98,4.47,1.98,7.15,0,3.41-1,6.22-3,8.44-2,2.22-5,3.62-8.98,4.2,1.98,1.16,3.62,2.43,4.91,3.81,1.29,1.38,3.03,3.84,5.22,7.37l5.54,8.86h-10.96l-6.63-9.88c-2.35-3.53-3.96-5.75-4.83-6.67-.87-.92-1.79-1.55-2.76-1.89s-2.51-.51-4.61-.51h-1.86v18.95h-9.17ZM468.08,405.81h6.78c4.4,0,7.14-.19,8.24-.56,1.09-.37,1.95-1.01,2.57-1.92.62-.91.93-2.04.93-3.41,0-1.53-.41-2.76-1.22-3.7-.82-.94-1.97-1.53-3.45-1.78-.74-.1-2.97-.15-6.69-.15h-7.15v11.52Z"/>
            <path class="cls-20" d="M504.69,432v-45.39h33.66v7.68h-24.49v10.06h22.79v7.65h-22.79v12.35h25.36v7.65h-34.53Z"/>
            <path class="cls-20" d="M546.98,432v-45.39h14.71c5.57,0,9.21.23,10.9.68,2.6.68,4.78,2.16,6.53,4.44,1.75,2.28,2.63,5.23,2.63,8.84,0,2.79-.51,5.13-1.52,7.03-1.01,1.9-2.3,3.39-3.85,4.47s-3.14,1.8-4.75,2.15c-2.19.43-5.36.65-9.51.65h-5.98v17.12h-9.17ZM556.15,394.29v12.88h5.02c3.61,0,6.03-.24,7.25-.71,1.22-.47,2.17-1.22,2.86-2.23.69-1.01,1.04-2.19,1.04-3.53,0-1.65-.49-3.01-1.46-4.09-.97-1.07-2.2-1.74-3.68-2.01-1.09-.21-3.29-.31-6.6-.31h-4.43Z"/>
            <path class="cls-20" d="M589.22,386.61h9.17v24.59c0,3.9.11,6.43.34,7.59.39,1.86,1.33,3.35,2.8,4.47,1.48,1.13,3.49,1.69,6.05,1.69s4.56-.53,5.88-1.59c1.32-1.06,2.12-2.37,2.38-3.92.27-1.55.4-4.12.4-7.71v-25.11h9.17v23.84c0,5.45-.25,9.3-.74,11.55s-1.41,4.15-2.74,5.7-3.11,2.78-5.34,3.7c-2.23.92-5.14,1.38-8.73,1.38-4.33,0-7.62-.5-9.86-1.5s-4.01-2.3-5.31-3.9c-1.3-1.6-2.16-3.28-2.57-5.03-.6-2.6-.9-6.44-.9-11.52v-24.21Z"/>
            <path class="cls-20" d="M635.11,386.61h18.15c3.59,0,6.27.15,8.04.45,1.77.3,3.34.92,4.74,1.87,1.39.95,2.55,2.21,3.48,3.79.93,1.58,1.39,3.35,1.39,5.31,0,2.13-.57,4.08-1.72,5.85-1.15,1.78-2.7,3.11-4.66,3.99,2.77.81,4.89,2.18,6.38,4.12,1.49,1.94,2.23,4.22,2.23,6.84,0,2.06-.48,4.07-1.44,6.02-.96,1.95-2.27,3.51-3.93,4.68-1.66,1.17-3.71,1.88-6.15,2.15-1.53.17-5.21.27-11.05.31h-15.45v-45.39ZM644.27,394.16v10.5h6.01c3.57,0,5.79-.05,6.66-.15,1.57-.19,2.8-.73,3.7-1.63.9-.9,1.35-2.08,1.35-3.55s-.39-2.54-1.16-3.42c-.77-.88-1.93-1.41-3.45-1.59-.91-.1-3.52-.15-7.83-.15h-5.26ZM644.27,412.22v12.14h8.48c3.3,0,5.4-.09,6.29-.28,1.36-.25,2.47-.85,3.33-1.81.86-.96,1.29-2.25,1.29-3.85,0-1.36-.33-2.52-.99-3.47-.66-.95-1.62-1.64-2.86-2.07s-3.96-.65-8.13-.65h-7.4Z"/>
            <path class="cls-20" d="M681.12,432v-45.02h9.17v37.37h22.79v7.65h-31.96Z"/>
            <path class="cls-20" d="M719.33,432v-45.39h9.17v45.39h-9.17Z"/>
            <path class="cls-20" d="M766.28,415.31l8.89,2.82c-1.36,4.95-3.63,8.63-6.8,11.04-3.17,2.41-7.19,3.61-12.06,3.61-6.03,0-10.98-2.06-14.86-6.18s-5.82-9.75-5.82-16.89c0-7.56,1.95-13.42,5.85-17.6s9.03-6.27,15.39-6.27c5.55,0,10.06,1.64,13.53,4.92,2.06,1.94,3.61,4.73,4.65,8.36l-9.07,2.17c-.54-2.35-1.66-4.21-3.36-5.57s-3.77-2.04-6.21-2.04c-3.36,0-6.1,1.21-8.19,3.62-2.1,2.42-3.14,6.33-3.14,11.74,0,5.74,1.03,9.83,3.1,12.26,2.06,2.44,4.75,3.65,8.05,3.65,2.44,0,4.53-.77,6.29-2.32,1.75-1.55,3.01-3.98,3.78-7.31Z"/>
            <path class="cls-20" d="M798.79,409.59c0-4.62.69-8.5,2.07-11.64,1.03-2.31,2.44-4.39,4.23-6.22,1.79-1.84,3.74-3.2,5.87-4.09,2.83-1.2,6.09-1.8,9.79-1.8,6.69,0,12.04,2.07,16.06,6.22,4.01,4.15,6.02,9.92,6.02,17.31s-1.99,13.06-5.98,17.2c-3.98,4.14-9.31,6.21-15.98,6.21s-12.12-2.06-16.1-6.18c-3.98-4.12-5.98-9.79-5.98-17.02ZM808.23,409.28c0,5.14,1.19,9.04,3.56,11.69,2.37,2.65,5.39,3.98,9.04,3.98s6.65-1.32,9-3.95c2.34-2.63,3.51-6.58,3.51-11.84s-1.14-9.08-3.42-11.64c-2.28-2.56-5.31-3.84-9.09-3.84s-6.82,1.3-9.13,3.89c-2.31,2.59-3.47,6.5-3.47,11.72Z"/>
            <path class="cls-20" d="M850.03,432v-45.39h31.12v7.68h-21.95v10.74h18.95v7.68h-18.95v19.29h-9.17Z"/>
            <path class="cls-20" d="M904.01,417.23l8.92-.87c.54,2.99,1.63,5.19,3.27,6.6s3.85,2.11,6.64,2.11c2.95,0,5.18-.62,6.67-1.87,1.5-1.25,2.24-2.71,2.24-4.38,0-1.07-.31-1.99-.94-2.74-.63-.75-1.73-1.41-3.3-1.97-1.07-.37-3.52-1.03-7.34-1.98-4.91-1.22-8.36-2.71-10.34-4.49-2.79-2.5-4.18-5.54-4.18-9.13,0-2.31.65-4.47,1.97-6.49,1.31-2.01,3.2-3.55,5.67-4.6,2.47-1.05,5.44-1.58,8.93-1.58,5.7,0,9.99,1.25,12.87,3.75,2.88,2.5,4.39,5.83,4.54,10l-9.17.4c-.39-2.33-1.23-4.01-2.52-5.03s-3.23-1.53-5.81-1.53-4.75.55-6.25,1.64c-.97.7-1.46,1.64-1.46,2.82,0,1.07.45,1.99,1.36,2.76,1.16.97,3.96,1.98,8.42,3.03,4.46,1.05,7.76,2.14,9.89,3.27,2.14,1.13,3.81,2.66,5.02,4.61,1.21,1.95,1.81,4.36,1.81,7.23,0,2.6-.72,5.04-2.17,7.31-1.45,2.27-3.49,3.96-6.13,5.06-2.64,1.1-5.94,1.66-9.88,1.66-5.74,0-10.15-1.33-13.22-3.98-3.08-2.65-4.91-6.52-5.51-11.6Z"/>
            <path class="cls-20" d="M946.77,409.59c0-4.62.69-8.5,2.07-11.64,1.03-2.31,2.44-4.39,4.23-6.22,1.79-1.84,3.74-3.2,5.87-4.09,2.83-1.2,6.09-1.8,9.79-1.8,6.69,0,12.04,2.07,16.06,6.22,4.01,4.15,6.02,9.92,6.02,17.31s-1.99,13.06-5.98,17.2c-3.98,4.14-9.31,6.21-15.98,6.21s-12.12-2.06-16.1-6.18c-3.98-4.12-5.98-9.79-5.98-17.02ZM956.21,409.28c0,5.14,1.19,9.04,3.56,11.69,2.37,2.65,5.39,3.98,9.04,3.98s6.65-1.32,9-3.95c2.34-2.63,3.51-6.58,3.51-11.84s-1.14-9.08-3.42-11.64c-2.28-2.56-5.31-3.84-9.09-3.84s-6.82,1.3-9.13,3.89c-2.31,2.59-3.47,6.5-3.47,11.72Z"/>
            <path class="cls-20" d="M997.89,386.61h9.17v24.59c0,3.9.11,6.43.34,7.59.39,1.86,1.33,3.35,2.8,4.47,1.48,1.13,3.49,1.69,6.05,1.69s4.56-.53,5.88-1.59c1.32-1.06,2.12-2.37,2.38-3.92.27-1.55.4-4.12.4-7.71v-25.11h9.17v23.84c0,5.45-.25,9.3-.74,11.55s-1.41,4.15-2.74,5.7-3.11,2.78-5.34,3.7c-2.23.92-5.14,1.38-8.73,1.38-4.33,0-7.62-.5-9.86-1.5s-4.01-2.3-5.31-3.9c-1.3-1.6-2.16-3.28-2.57-5.03-.6-2.6-.9-6.44-.9-11.52v-24.21Z"/>
            <path class="cls-20" d="M1053.97,432v-37.71h-13.47v-7.68h36.07v7.68h-13.44v37.71h-9.17Z"/>
            <path class="cls-20" d="M1082.52,432v-45.39h9.17v17.87h17.96v-17.87h9.17v45.39h-9.17v-19.85h-17.96v19.85h-9.17Z"/>
            <path class="cls-20" d="M1186.84,432h-9.97l-3.96-10.31h-18.15l-3.75,10.31h-9.72l17.68-45.39h9.69l18.18,45.39ZM1169.96,414.04l-6.25-16.84-6.13,16.84h12.39Z"/>
            <path class="cls-20" d="M1191.76,432v-45.39h31.12v7.68h-21.95v10.74h18.95v7.68h-18.95v19.29h-9.17Z"/>
            <path class="cls-20" d="M1230.47,432v-45.39h19.29c4.85,0,8.38.41,10.57,1.22,2.2.82,3.96,2.27,5.28,4.35,1.32,2.09,1.98,4.47,1.98,7.15,0,3.41-1,6.22-3,8.44-2,2.22-5,3.62-8.98,4.2,1.98,1.16,3.62,2.43,4.91,3.81,1.29,1.38,3.03,3.84,5.22,7.37l5.54,8.86h-10.96l-6.63-9.88c-2.35-3.53-3.96-5.75-4.83-6.67-.87-.92-1.79-1.55-2.76-1.89s-2.51-.51-4.61-.51h-1.86v18.95h-9.17ZM1239.63,405.81h6.78c4.4,0,7.14-.19,8.24-.56,1.09-.37,1.95-1.01,2.57-1.92.62-.91.93-2.04.93-3.41,0-1.53-.41-2.76-1.22-3.7-.82-.94-1.97-1.53-3.45-1.78-.74-.1-2.97-.15-6.69-.15h-7.15v11.52Z"/>
            <path class="cls-20" d="M1275.95,432v-45.39h9.17v45.39h-9.17Z"/>
            <path class="cls-20" d="M1322.9,415.31l8.89,2.82c-1.36,4.95-3.63,8.63-6.8,11.04-3.17,2.41-7.19,3.61-12.06,3.61-6.03,0-10.98-2.06-14.86-6.18s-5.82-9.75-5.82-16.89c0-7.56,1.95-13.42,5.85-17.6s9.03-6.27,15.39-6.27c5.55,0,10.06,1.64,13.53,4.92,2.06,1.94,3.61,4.73,4.65,8.36l-9.07,2.17c-.54-2.35-1.66-4.21-3.36-5.57s-3.77-2.04-6.21-2.04c-3.36,0-6.1,1.21-8.19,3.62-2.1,2.42-3.14,6.33-3.14,11.74,0,5.74,1.03,9.83,3.1,12.26,2.06,2.44,4.75,3.65,8.05,3.65,2.44,0,4.53-.77,6.29-2.32,1.75-1.55,3.01-3.98,3.78-7.31Z"/>
            <path class="cls-20" d="M1380.58,432h-9.97l-3.96-10.31h-18.15l-3.75,10.31h-9.72l17.68-45.39h9.69l18.18,45.39ZM1363.71,414.04l-6.25-16.84-6.13,16.84h12.39Z"/>
          </g>
        </g>
        <g>
          <path class="cls-18" d="M478.79,177.14h-10.11v-99.94h10.11v99.94Z"/>
          <path class="cls-18" d="M545.62,172.46c-8.21,5.86-11.28,6.01-13.04,6.01-5.42,0-6.59-4.4-7.18-7.47-8.21,6.15-13.34,7.47-19.2,7.47-9.23,0-17-7.03-17-16.71,0-10.7,8.79-19.34,36.05-24.18v-5.86c0-4.25-.73-12.75-13.04-12.75-8.65,0-14.8,4.4-20.52,9.67v-10.55c3.22-2.78,10.7-8.06,21.4-8.06,18.76,0,22.27,13.19,22.27,20.66v36.05c0,2.78.29,3.52,1.76,3.52,1.32,0,4.54-1.47,8.5-4.69v6.89ZM525.25,144.17c-16.85,3.08-25.94,8.65-25.94,16.85s7.33,10.11,11.14,10.11c7.03,0,12.31-4.69,14.8-7.03v-19.93Z"/>
          <path class="cls-18" d="M551.63,77.2h10.11v41.18c3.22-2.49,9.96-8.35,20.81-8.35,18.46,0,28.87,15.83,28.87,32.68,0,21.54-13.63,35.76-35.46,35.76-8.35,0-16.71-1.76-24.33-4.98v-96.28ZM561.74,166.89c7.47,2.64,13.77,2.64,15.09,2.64,13.77,0,24.18-10.99,24.18-25.94,0-14.07-9.09-24.62-20.52-24.62-4.84,0-12.16,2.49-18.76,9.67v38.25Z"/>
          <path class="cls-18" d="M687.04,144.17c0,18.9-15.39,34.29-34.29,34.29s-34.15-15.39-34.15-34.29,15.24-34.15,34.15-34.15,34.29,15.24,34.29,34.15ZM629.01,144.17c0,13.92,10.11,25.35,23.89,25.35s23.74-11.43,23.74-25.35-9.97-25.21-23.74-25.21-23.89,11.28-23.89,25.21Z"/>
          <path class="cls-18" d="M740.67,177.14v-9.96c-4.84,6.45-11.28,11.28-20.66,11.28-14.8,0-23.59-10.84-23.59-27.84v-39.27h10.11v38.4c0,11.14,4.25,19.78,15.83,19.78,3.81,0,12.16-1.17,18.32-11.58v-46.6h10.11v65.8h-10.11Z"/>
          <path class="cls-18" d="M774.82,111.35v14.51c1.76-2.78,5.57-8.5,10.99-12.16,1.32-.88,5.57-3.66,9.97-3.66,6.3,0,13.19,5.72,15.68,7.77l-5.42,8.79c-2.2-1.91-7.03-6.15-12.75-6.15s-13.04,5.28-16.12,12.46c-2.34,5.28-2.34,12.46-2.34,15.83v28.43h-10.11v-65.8h10.11Z"/>
        </g>
      </g>
      <g>
        <polyline class="cls-19" points="138.86 82.1 166.11 72.29 170.16 61.75 87.04 62.48 138.86 82.1"/>
        <polyline class="cls-22" points="151.69 75.75 170.16 61.75 87.04 62.48 151.69 75.75"/>
        <polyline class="cls-19" points="160.1 73.6 194.38 70.88 204.02 66.71 149.27 10.79 160.1 73.6"/>
        <polyline class="cls-22" points="179.82 71.67 204.02 66.71 149.27 10.79 179.82 71.67"/>
        <polyline class="cls-19" points="151.63 77.08 188.92 68.74 193.45 65.45 110.33 27.72 151.63 77.08"/>
        <polyline class="cls-22" points="171.48 72.24 193.87 65.38 110.33 27.72 171.48 72.24"/>
        <polyline class="cls-22" points="238.29 82.1 211.05 72.29 207.01 61.75 290.39 62.48 238.29 82.1"/>
        <polyline class="cls-19" points="225.47 75.75 207.01 61.75 290.39 62.48 225.47 75.75"/>
        <polyline class="cls-22" points="217.05 73.6 182.79 70.88 173.14 66.71 227.9 10.79 217.05 73.6"/>
        <polyline class="cls-19" points="197.69 71.11 173.14 66.71 227.9 10.79 197.69 71.11"/>
        <polyline class="cls-22" points="226.39 76.98 188.24 68.74 183.96 65.45 266.83 27.72 226.39 76.98"/>
        <polyline class="cls-19" points="205.93 72.09 183.28 65.38 266.83 27.72 205.93 72.09"/>
        <polyline class="cls-22" points="210.32 70.06 202.34 68.55 194.11 67.75 186.94 67.71 178.82 68.2 166.84 70.64 188.68 1.03 210.32 70.06"/>
        <polyline class="cls-19" points="188.54 67.66 177.45 68.4 166.84 70.6 188.68 1.03 188.54 67.66"/>
        <path class="cls-17" d="M227.73,312.85c.61-.17.89-.24,1.55-.58,1.98-.96,3.78-2.53,3.28-3.37-.5-.81-4.38-.58-5.08,3.75-.05.12.08.23.24.2M210.5,311.77c-.25-.09-.52-.17-.8-.24-2.54-.64-5.46-.71-5.82.44-.3.94,1.68,2.23,4.23,2.87.71.19,1.4.32,2.03.39.09.02.18-.04.18-.12.05-.58.25-2.62.31-3.16.02-.13-.07-.16-.13-.18Z"/>
        <path class="cls-17" d="M149.7,312.85c-.62-.17-.9-.24-1.56-.58-1.98-.96-3.78-2.53-3.28-3.37.5-.81,4.38-.58,5.08,3.75.06.12-.08.23-.23.2M166.91,311.77c.25-.09.53-.17.81-.24,2.54-.64,5.46-.71,5.82.44.3.94-1.69,2.23-4.22,2.87-.72.19-1.41.32-2.04.39-.09.02-.17-.04-.18-.12-.06-.58-.25-2.62-.31-3.16-.02-.13.07-.16.12-.18Z"/>
        <polyline class="cls-10" points="221.5 216.43 205.27 246.11 192.76 258.8 200.82 247.73 196.94 233.84 221.5 216.43"/>
        <polyline class="cls-18" points="150.94 197.75 187.43 197.75 169.51 183.41 150.94 197.75"/>
        <polygon class="cls-4" points="150.94 197.75 187.43 197.75 169.51 183.41 150.94 197.75"/>
        <polyline class="cls-18" points="187.25 197.75 223.74 197.75 205.61 183.38 187.25 197.75"/>
        <polygon class="cls-4" points="187.25 197.75 223.74 197.75 205.61 183.38 187.25 197.75"/>
        <polyline class="cls-26" points="169.45 183.41 205.83 183.44 187.62 169.42 169.45 183.41"/>
        <polygon class="cls-18" points="132.02 212.36 168.88 212.36 150.7 197.97 132.02 212.36"/>
        <polygon class="cls-4" points="132.02 212.36 168.88 212.36 150.7 197.97 132.02 212.36"/>
        <polygon class="cls-20" points="168.91 212.36 205.84 212.4 187.62 197.59 168.91 212.36"/>
        <polygon class="cls-1" points="168.91 212.36 205.84 212.4 187.62 197.59 168.91 212.36"/>
        <polyline class="cls-18" points="205.82 212.4 242.3 212.4 223.53 197.6 205.82 212.4"/>
        <polygon class="cls-4" points="205.82 212.4 242.3 212.4 223.53 197.6 205.82 212.4"/>
        <path class="cls-8" d="M186.93,111.35s6.86,1.55,9.66,1.62c2.81.06,7.74-.88,11.56-.88,8.38,0,13.83,2.2,13.83,2.2,0,0-5.23-.34-11.69.27-6.45.61-7.13.88-7.07,1.48.07.61,2.2.2,4.57.07,2.36-.14,3.99-.34,9.16-.14,5.17.2,10.8,2.02,10.8,2.02,0,0-5.33-.77-14.63.68-9.28,1.45-9.68,2-9.68,2,0,0,8.79.08,14.05.65,10.07,1.17,15.98,5.06,15.98,5.06,0,0-8.01-2.21-17.8-2.08-9.81.15-14.3-.26-15.92-.74-.41-.26-1.22-.26-.48.41.48.42,2.54.71,4.29.88,1.76.18,5,.37,9.9,1.4,4.91,1.01,12.31,3.42,14.63,4.62,2.34,1.22,9,5.39,9,5.39,0,0-7.81-3.55-17.17-4.87-9.36-1.32-13.73-2.41-16.49-2.7-5.69-.61-10.28-2.91-10.28-2.91,0,0,2.76-2.57,2.64-5.91-.14-3.36-1.53-5.41-3.52-6.56-1.99-1.15-5.34-1.95-5.34-1.95"/>
        <path class="cls-24" d="M265.4,291.3c1.35-.61,1.56.34,1.87,1.55.29,1.2,3.57,9.74,3.57,9.74,0,0,4,4.14,5.54,5.75,1.55,1.62,5.44,5.63,5.12,7.07-.3,1.44-1.3,2.69-2.75,2.69s-3.47-2.04-5.12-4.41c-1.66-2.38-2.62-4.63-3.31-6.48-.69-1.85-5.54-14.57-5.54-14.57-.18-.79.62-1.34.62-1.34"/>
        <path class="cls-24" d="M283.07,319.33c-.94,1.21-1.96,2.37-.42,4.4,1.55,2.04,2.24,2.97,4.3,2.97s5.76-3.78,6.89-9.44c1.13-5.64.82-5.68,1.02-8.01.21-2.34.72-10.65.72-10.65,0,0-.2-1.24-1.13-1.24s-1.13.75-1.13,1.24-.42,8.61-.42,8.61c0,0,.42.6-.72,1.93-1.13,1.35-9.12,10.19-9.12,10.19"/>
        <path class="cls-24" d="M282.06,337.16c-1.11,1.05-2.31,2.04-1.1,4.29,1.22,2.25,1.76,3.27,3.8,3.58,2.03.33,6.27-2.83,8.28-8.23,2-5.4,1.7-5.49,2.27-7.77.57-2.28,2.38-10.39,2.38-10.39,0,0-.02-1.25-.94-1.41-.92-.15-1.23.57-1.32,1.04-.07.49-1.75,8.44-1.75,8.44,0,0,.31.64-1.02,1.8-1.34,1.14-10.61,8.64-10.61,8.64"/>
        <path class="cls-24" d="M267.54,307.27c1.37-.55,1.52.43,1.78,1.64.24,1.23,3.06,9.93,3.06,9.93,0,0,3.78,4.34,5.24,6.03,1.45,1.71,5.13,5.9,4.74,7.32-.38,1.42-1.44,2.62-2.89,2.54-1.44-.08-3.37-2.21-4.89-4.67-1.53-2.46-2.36-4.75-2.96-6.65-.6-1.88-4.78-14.84-4.78-14.84-.12-.73.69-1.31.69-1.31"/>
        <path class="cls-24" d="M268.71,322.45c1.42-.39,1.46.61,1.55,1.84.1,1.24,1.84,10.21,1.84,10.21,0,0,3.21,4.77,4.46,6.63,1.25,1.86,4.37,6.48,3.83,7.86-.56,1.37-1.76,2.41-3.18,2.16-1.42-.24-3.06-2.6-4.28-5.23-1.22-2.63-1.78-5-2.14-6.95-.35-1.95-2.93-15.3-2.93-15.3-.13-.89.85-1.21.85-1.21"/>
        <path class="cls-24" d="M280.52,353.95c-1.16.99-2.41,1.92-1.32,4.23,1.09,2.3,1.57,3.36,3.59,3.79,2.02.43,6.41-2.52,8.7-7.8,2.28-5.29,1.99-5.38,2.68-7.63.68-2.24,2.91-10.26,2.91-10.26,0,0,.06-1.25-.85-1.44-.91-.2-1.27.5-1.37.98-.1.47-2.2,8.34-2.2,8.34,0,0,.28.65-1.1,1.74-1.4,1.07-11.05,8.07-11.05,8.07"/>
        <path class="cls-24" d="M268.09,340.51c1.45-.29,1.42.7,1.42,1.94,0,1.24,1.12,10.32,1.12,10.32,0,0,2.88,4.98,3.98,6.92,1.12,1.95,3.92,6.76,3.28,8.1-.65,1.33-1.92,2.28-3.32,1.93-1.42-.35-2.9-2.81-3.92-5.51-1.03-2.71-1.42-5.11-1.63-7.09-.23-1.97-1.86-15.46-1.86-15.46-.06-.8.93-1.15.93-1.15"/>
        <path class="cls-24" d="M272.19,377.8c-.1,2.67,2.62,3.3,4.02,3.09,1.42-.2,3.96-1.52,6.65-4.52,2.68-2.99,10.05-18.59,10.05-18.59,0,0,1.25-1.62,0-2.13-1.23-.51-1.23.04-1.54.51-.31.49-3.47,8-4.2,9.03-.72,1.03-7.31,5.92-9.96,7.8-2.65,1.85-5.03,4.81-5.03,4.81"/>
        <path class="cls-24" d="M264.51,390.95c-.11,1.66,1.1,4.41,3.17,4,2.06-.42,5.47-1.34,8.84-4.82,3.37-3.48,5.72-7.27,7.15-9.03,1.45-1.76,3.69-4.51,3.69-4.51,0,0,.53-1.13-.2-1.54-.72-.42-1.52-.31-2.24.72s-4.41,6.23-5.23,7.16c-.83.92-7.24,3.13-9.42,4.16-2.17,1.04-5.34,2.66-5.77,3.86"/>
        <path class="cls-24" d="M253.71,406.24c-.41,1.76-.36,4.62,4.08,3.79,4.44-.83,8.02-3.93,9.98-5.55,1.96-1.61,5.37-5.6,6.88-7.36,1.53-1.76,3.17-3.34,3.79-3.92.62-.59.53-.9,0-1.31-.51-.43-1.12-.39-1.95.41-.83.78-4.25,5.2-6.17,6.65-1.92,1.43-8.68,2.92-11.25,3.92-2.6,1.01-4.7,2.22-5.36,3.38"/>
        <path class="cls-24" d="M254.75,397.7c.46,1.29,1.1,1.88,2.96,1.82,1.85-.06,3.05-.49,3.62-1.75s-.96-6.89-1.47-9.83c-.52-2.95-1.08-4.34-.62-5.9.46-1.57,1.34-3.18,1.41-4.19.06-1.01-.77-1.53-1.57-.67-.43.46-2.67,8.27-3.04,9.89-.35,1.64-1.53,6.3-1.49,7.44.04,1.14.21,3.2.21,3.2"/>
        <path class="cls-24" d="M265.07,385.63c.76,1.14,1.52,1.57,3.31,1.05,1.8-.51,2.84-1.21,3.1-2.57.25-1.37-2.61-6.45-3.82-9.19-1.21-2.73-2.1-3.94-2.03-5.57.07-1.64.53-3.41.35-4.4-.19-1-1.21-1.2-1.59-.58-.33.54-.69,8.96-.64,10.64.04,1.67.02,6.48.33,7.56.32,1.09.99,3.05.99,3.05"/>
        <path class="cls-24" d="M240.07,419.98c-.62,1.68-1.03,4.52,3.48,4.24,4.51-.27,8.43-2.91,10.58-4.28,2.15-1.38,6.01-4.92,7.73-6.48,1.72-1.55,3.55-2.92,4.24-3.44.69-.51.62-.82.16-1.29-.45-.48-1.07-.53-1.99.16-.92.69-4.83,4.67-6.93,5.85-2.08,1.2-8.97,1.85-11.65,2.53-2.68.68-5.61,2.72-5.61,2.72"/>
        <path class="cls-24" d="M241.91,412.61c.2,1.37.72,2.07,2.55,2.36,1.84.28,3.09.11,3.89-1.02.81-1.12.37-6.95.43-9.94.05-3-.23-4.47.52-5.92.75-1.44,1.91-2.85,2.18-3.83.26-.98-.54-1.42-1.15-1.31-.62.11-4.46,7.94-5.13,9.48-.65,1.53-2.7,5.88-2.88,7.01-.19,1.12-.4,3.17-.4,3.17"/>
        <path class="cls-24" d="M230.46,424.87c.18,1.37.4,2.71,2.23,3.05,1.83.31,3.37-.47,4.19-1.59.82-1.11.49-6.94.6-9.93.11-2.99-.16-4.47.62-5.91.77-1.43,1.96-2.82,2.24-3.8.28-.96-.51-1.42-1.13-1.32-.62.12-4.6,7.86-5.29,9.38-.68,1.53-2.8,5.85-3,6.97-.21,1.1-.46,3.15-.46,3.15"/>
        <path class="cls-24" d="M197.57,444.63s11.01.49,29.57-8.34c13.43-6.57,14.26-7.66,14.26-7.66,0,0,.4-.84.2-1.46-.2-.61-.94-.72-1.76-.2-.83.51-3.51,2.55-5.65,3.16-2.13.62-3.8.47-4.82-.69-1.82-2.06-1.62-7.6-1.62-7.6,0,0-5.33,6.47-12.94,11.81-7.6,5.34-17.25,10.98-17.25,10.98"/>
        <path class="cls-24" d="M277.78,278.32c.74.05.9.53,1,.95.11.43,4.76,30.56,4.76,30.56,0,0-5.71-3.3-6.24-6.89-.52-3.57,1.8-8.15,1.8-9.34s-2.06-14.44-2.06-14.44c0,0,0-.79.74-.84"/>
        <path class="cls-24" d="M281.54,278.94c.73-.1,1.1.68,1.21,1.32.11.64,1.8,11.94,1.8,11.94,0,0,5.44,8.33,5.7,10,.27,1.69-.26,3.8-1.74,5.4-1.47,1.59-2.79,2.23-2.79,2.23l-4.81-29.98s.21-.73.63-.9"/>
        <path class="cls-24" d="M111.29,291.3c-1.35-.61-1.55.34-1.85,1.55-.31,1.2-3.6,9.74-3.6,9.74,0,0-4,4.14-5.54,5.75-1.55,1.62-5.46,5.63-5.14,7.07.31,1.44,1.31,2.69,2.76,2.69s3.48-2.04,5.13-4.41c1.66-2.38,2.62-4.63,3.32-6.48.69-1.85,5.54-14.57,5.54-14.57.18-.79-.61-1.34-.61-1.34"/>
        <path class="cls-24" d="M93.61,319.33c.92,1.21,1.96,2.37.41,4.4-1.55,2.04-2.24,2.97-4.31,2.97s-5.75-3.78-6.9-9.44c-1.13-5.64-.82-5.68-1.02-8.01-.2-2.34-.73-10.65-.73-10.65,0,0,.2-1.24,1.15-1.24s1.12.75,1.12,1.24.42,8.61.42,8.61c0,0-.42.6.72,1.93,1.13,1.35,9.15,10.19,9.15,10.19"/>
        <path class="cls-24" d="M94.61,337.16c1.1,1.05,2.31,2.04,1.1,4.29-1.21,2.25-1.76,3.27-3.8,3.58-2.04.33-6.28-2.83-8.29-8.23-2.01-5.4-1.72-5.49-2.28-7.77-.57-2.28-2.38-10.39-2.38-10.39,0,0,.02-1.25.94-1.41.92-.15,1.24.57,1.31,1.04.09.49,1.76,8.44,1.76,8.44,0,0-.31.64,1.02,1.8,1.34,1.14,10.63,8.64,10.63,8.64"/>
        <path class="cls-24" d="M109.14,307.27c-1.38-.55-1.53.43-1.78,1.64-.25,1.23-3.06,9.93-3.06,9.93,0,0-3.79,4.34-5.25,6.03-1.46,1.71-5.14,5.9-4.76,7.32.39,1.42,1.45,2.62,2.9,2.54,1.44-.08,3.37-2.21,4.91-4.67,1.51-2.46,2.36-4.75,2.96-6.65.59-1.88,4.78-14.84,4.78-14.84.12-.73-.69-1.31-.69-1.31"/>
        <path class="cls-24" d="M107.98,322.45c-1.43-.39-1.46.61-1.56,1.84-.09,1.24-1.84,10.21-1.84,10.21,0,0-3.22,4.77-4.47,6.63-1.24,1.86-4.39,6.48-3.84,7.86.57,1.37,1.76,2.41,3.19,2.16,1.42-.24,3.08-2.6,4.28-5.23,1.22-2.63,1.79-5,2.15-6.95.35-1.95,2.94-15.3,2.94-15.3.12-.89-.86-1.21-.86-1.21"/>
        <path class="cls-24" d="M96.15,353.96c1.16,1,2.42,1.91,1.33,4.24-1.09,2.3-1.58,3.36-3.6,3.78-2.02.44-6.41-2.51-8.71-7.8-2.28-5.28-1.99-5.37-2.68-7.62-.69-2.24-2.92-10.27-2.92-10.27,0,0-.06-1.24.85-1.44.91-.2,1.27.51,1.37.98.11.47,2.2,8.34,2.2,8.34,0,0-.28.66,1.11,1.75,1.4,1.06,11.06,8.06,11.06,8.06"/>
        <path class="cls-24" d="M108.6,340.51c-1.45-.29-1.43.7-1.43,1.94,0,1.24-1.11,10.32-1.11,10.32,0,0-2.89,4.98-3.99,6.92-1.11,1.95-3.92,6.76-3.28,8.1.65,1.33,1.92,2.28,3.34,1.93,1.4-.35,2.88-2.81,3.91-5.51,1.02-2.71,1.42-5.11,1.64-7.09.21-1.97,1.85-15.46,1.85-15.46.07-.8-.93-1.15-.93-1.15"/>
        <path class="cls-24" d="M104.5,377.8c.11,2.67-2.62,3.3-4.03,3.09-1.42-.2-3.97-1.52-6.67-4.52-2.67-2.99-10.06-18.59-10.06-18.59,0,0-1.24-1.62,0-2.13,1.25-.51,1.25.04,1.55.51.3.49,3.48,8,4.21,9.03.72,1.03,7.31,5.92,9.98,7.8,2.65,1.85,5.03,4.81,5.03,4.81"/>
        <path class="cls-24" d="M112.19,390.95c.1,1.66-1.11,4.41-3.18,4-2.06-.42-5.48-1.34-8.85-4.82-3.39-3.48-5.73-7.27-7.17-9.03-1.44-1.76-3.69-4.51-3.69-4.51,0,0-.52-1.13.2-1.54.72-.42,1.51-.31,2.24.72.73,1.03,4.42,6.23,5.25,7.16.82.92,7.24,3.13,9.42,4.16,2.17,1.04,5.35,2.66,5.79,3.86"/>
        <path class="cls-24" d="M122.98,406.24c.42,1.76.37,4.62-4.07,3.79-4.45-.83-8.04-3.93-10-5.55-1.96-1.61-5.38-5.6-6.9-7.36-1.5-1.76-3.17-3.34-3.79-3.92-.62-.59-.52-.9,0-1.31.52-.43,1.13-.39,1.96.41.83.78,4.25,5.2,6.18,6.65,1.92,1.43,8.69,2.92,11.27,3.92,2.59,1.01,4.7,2.22,5.35,3.38"/>
        <path class="cls-24" d="M121.96,397.7c-.46,1.29-1.09,1.88-2.97,1.82-1.85-.06-3.05-.49-3.62-1.75s.96-6.89,1.48-9.83c.51-2.95,1.07-4.34.61-5.9-.46-1.57-1.34-3.18-1.41-4.19-.07-1.01.77-1.53,1.58-.67.43.46,2.67,8.27,3.04,9.89.35,1.64,1.53,6.3,1.49,7.44-.04,1.14-.21,3.2-.21,3.2"/>
        <path class="cls-24" d="M111.62,385.63c-.77,1.14-1.54,1.57-3.33,1.05-1.79-.51-2.84-1.21-3.09-2.57-.25-1.37,2.61-6.45,3.82-9.19,1.22-2.73,2.11-3.94,2.04-5.57-.08-1.64-.54-3.41-.35-4.4.18-1,1.2-1.2,1.59-.58.33.54.69,8.96.64,10.64-.05,1.67-.03,6.48-.34,7.56-.31,1.09-.98,3.05-.98,3.05"/>
        <path class="cls-24" d="M136.66,419.98c.61,1.68,1.03,4.52-3.49,4.24-4.51-.27-8.44-2.91-10.59-4.28-2.15-1.38-6.02-4.92-7.74-6.48-1.73-1.55-3.56-2.92-4.25-3.44-.69-.51-.62-.82-.17-1.29.48-.48,1.08-.53,2,.16.93.69,4.84,4.67,6.95,5.85,2.08,1.2,8.97,1.85,11.66,2.53,2.69.68,5.62,2.72,5.62,2.72"/>
        <path class="cls-24" d="M134.81,412.61c-.21,1.37-.72,2.07-2.56,2.36-1.84.28-3.09.11-3.9-1.02-.8-1.12-.36-6.95-.43-9.94-.04-3,.24-4.47-.51-5.92-.76-1.44-1.92-2.85-2.18-3.83-.26-.98.54-1.42,1.15-1.31.61.11,4.47,7.94,5.13,9.48.66,1.53,2.71,5.88,2.89,7.01.19,1.12.4,3.17.4,3.17"/>
        <path class="cls-24" d="M146.29,424.87c-.19,1.37-.41,2.71-2.24,3.05-1.84.31-3.37-.47-4.19-1.59-.83-1.11-.5-6.94-.6-9.93-.11-2.99.15-4.47-.63-5.91-.78-1.43-1.96-2.82-2.24-3.8-.27-.96.52-1.42,1.13-1.32.62.12,4.62,7.86,5.31,9.38.68,1.53,2.8,5.85,3.01,6.97.21,1.1.46,3.15.46,3.15"/>
        <path class="cls-24" d="M179.21,444.63s-11.03.49-29.61-8.34c-13.45-6.57-14.28-7.66-14.28-7.66,0,0-.41-.84-.2-1.46.2-.61.93-.72,1.76-.2.83.51,3.51,2.55,5.66,3.16,2.14.62,3.8.47,4.82-.69,1.82-2.06,1.62-7.6,1.62-7.6,0,0,5.35,6.47,12.97,11.81,7.61,5.34,17.27,10.98,17.27,10.98"/>
        <path class="cls-24" d="M98.9,278.32c-.74.05-.9.53-1.01.95-.11.43-4.76,30.56-4.76,30.56,0,0,5.71-3.3,6.24-6.89.54-3.57-1.79-8.15-1.79-9.34s2.05-14.44,2.05-14.44c0,0,0-.79-.73-.84"/>
        <path class="cls-24" d="M95.13,278.94c-.74-.1-1.1.68-1.21,1.32-.11.64-1.8,11.94-1.8,11.94,0,0-5.45,8.33-5.72,10-.25,1.69.27,3.8,1.75,5.4,1.47,1.59,2.79,2.23,2.79,2.23l4.82-29.98s-.21-.73-.63-.9"/>
        <path class="cls-9" d="M168.16,179.05l19.48-15.23,10.32,8.19s2.96-4.58,3.77-9.83c.82-5.23.98-9.82.98-9.82,0,0-5.02-.1-8.5-1.8-6.39-3.11-10.15-10.65-10.15-10.65,0,0,.64,4.42-1.15,11.47-1.81,7.04-4.91,11.78-7.69,14.89s-7.05,12.77-7.05,12.77Z"/>
        <path class="cls-6" d="M168.16,179.05l19.48-15.23,10.32,8.19s2.96-4.58,3.77-9.83c.82-5.23.98-9.82.98-9.82,0,0-5.02-.1-8.5-1.8-6.39-3.11-10.15-10.65-10.15-10.65,0,0,.64,4.42-1.15,11.47-1.81,7.04-4.91,11.78-7.69,14.89s-7.05,12.77-7.05,12.77Z"/>
        <path class="cls-16" d="M189.29,131.91s.82,7.37,4.42,11.46c3.6,4.09,8.84,7.2,8.84,7.2,0,0-.33-7.86-2.29-10.97-1.96-3.1-10.97-7.69-10.97-7.69Z"/>
        <path class="cls-6" d="M189.29,131.91s.82,7.37,4.42,11.46c3.6,4.09,8.84,7.2,8.84,7.2,0,0-.33-7.86-2.29-10.97-1.96-3.1-10.97-7.69-10.97-7.69Z"/>
        <path class="cls-14" d="M206.17,150.03s.1,8.64-1.33,13.56c-1.43,4.93-4.12,10.79-4.12,10.79l9.97,7.91s9.97-1.13,16.12-2.36c6.17-1.23,10.91-2.47,13.47-5.03,3.38-3.4,1.02-7.5,1.02-7.5,0,0,8.36-3.74,12.21-6.49,5.75-4.09,2.89-8.09,2.89-8.09,0,0,6.43-1.54,10.47-3.71,7.28-3.9,4.1-7.39,4.1-7.39,0,0,9.12-.74,16.45-3.81,5.13-2.16,4.38-4.84,4.09-6.89-.3-2.05-1.75-7.91-5.75-13.15-3.99-5.23-6.45-8.21-8.72-8.39-2.27-.21-6.28,7.97-7.2,9.63-.92,1.65-12.93,20.56-27.73,33.39-14.79,12.83-25.14,16.98-28.14,16.63-2.67-.3-3.7-6.89-4.22-8.53-.5-1.64-3.59-10.57-3.59-10.57"/>
        <path class="cls-13" d="M152.94,129.04s1.1-1.85,2.3-3.27c.82-.97,1.55-.91,3.03-.82s14.82,1.8,17.43,2.46c2.62.65,4.42,1.22,5.4,2.28.99,1.07,2.05,3.2,2.71,4.67.64,1.47,3.1,7.6,7.12,11.13,6.38,5.66,10.64,5.98,10.64,5.98,0,0-2.95-.73-6.47-3.85-3.51-3.11-5.56-7.2-6.37-10.97-.82-3.76-1.18-4.99-1.36-6.63-.06-.61-.15-.99.02-1.15.17-.16.43-.26.67-.22.25.05,1.19.85,1.7,1.21.52.37,8.12,4.59,8.86,5.11.73.54,5.9,4.71,8.64,10.51,2.74,5.82,3.1,8.12,3.96,11.42.95,3.57,1.93,3.93,1.93,3.93,0,0,.73-3.76-.05-8.51-.77-4.75-2.62-9.37-4.83-12.41-2.21-3.02-4.49-5.32-4.49-5.32,0,0,3.68,1.55,11.13,3.6,7.45,2.05,9.91,2.7,14,4.18,4.1,1.48,10.48,4.18,10.48,4.18,0,0-2.43-3.06-8.76-6.31-6.55-3.35-11.54-5.9-16.46-7.45-4.9-1.55-10.51-3.32-12.92-3.68-4.92-.74-7.95-3.35-7.95-3.35,0,0,2.24-1.82,2.6-5.09.35-3.28-1.03-5.99-3.35-7.32-2.31-1.34-3.97-1.76-6.3-2.18-2.3-.42-8.16-.99-9.91-1.12-1.76-.14-3.7.21-5.25,1.27-1.53,1.04-2.65,2.78-3.01,3.76,0,0-7.11,1.61-9.57,2.87-2.45,1.27-4.4,2.32-5.51,5.95-1.12,3.62-.06,5.12-.06,5.12"/>
        <polyline class="cls-18" points="188.11 216.53 179.11 248.45 188.44 260.56 196.29 248.79 188.11 216.53"/>
        <polyline class="cls-10" points="153.98 216.43 170.21 246.11 182.73 258.8 174.67 247.73 178.56 233.84 153.98 216.43"/>
        <polyline class="cls-10" points="173.18 254.67 167.81 249.7 160.28 236.27 121.33 219.75 155.71 246.49 173.18 254.67"/>
        <polyline class="cls-13" points="124.68 216.53 156.79 230.1 149.28 216.53 124.68 216.53"/>
        <polyline class="cls-21" points="160.95 216.53 179.77 229.82 183.53 216.53 160.95 216.53"/>
        <polyline class="cls-10" points="202.45 254.67 207.83 249.7 215.36 236.27 254.3 219.75 219.92 246.49 202.45 254.67"/>
        <polyline class="cls-13" points="250.95 216.53 218.84 230.1 226.36 216.53 250.95 216.53"/>
        <polyline class="cls-21" points="214.69 216.53 195.86 229.82 192.12 216.53 214.69 216.53"/>
        <polyline class="cls-19" points="205.79 183.35 169.31 183.35 187.5 197.94 205.79 183.35"/>
        <polyline class="cls-19" points="187.67 197.8 150.62 197.8 168.81 212.4 187.67 197.8"/>
        <polyline class="cls-19" points="223.89 197.8 187.37 197.8 205.87 212.54 223.89 197.8"/>
        <path class="cls-17" d="M225.93,377.05c-.03-.23-.04-.45-.05-.65,0-.02,0-.06-.05-.09-.05-.04-.14-.03-.14-.03l-4.85.73s-.1,0-.17.06c-.08.05-.1.14-.1.14l-.27.72s-.03.07,0,.13c.05.05.13.03.13.03l5.35-.84s.07,0,.11-.05c.04-.05.03-.12.03-.15"/>
        <path class="cls-17" d="M212.37,348.39c.21.21.24.17.32.17.09,0,.18-.07.18-.07l7.94-5.56s.08-.07.1-.11c.04-.08-.03-.13-.05-.15-.16-.2-.29-.38-.42-.54,0-.02-.04-.1-.14-.09-.09,0-.34.2-.34.2l-7.84,5.32s-.15.08-.14.28c0,.15.2.3.38.54"/>
        <path class="cls-17" d="M204.54,378.2c-.08.23-.14.4-.23.66,0,.03-.05.14-.02.19.03.07.13.04.13.04l6.17-1.3s.17-.04.21-.1c.08-.08,0-.21-.03-.29-.07-.2-.08-.23-.1-.44,0-.02-.02-.12-.13-.16-.1-.04-.24,0-.24,0l-5.48,1.17s-.11,0-.19.07c-.06.05-.09.12-.1.16"/>
        <path class="cls-17" d="M151.65,377.05c.02-.23.03-.45.04-.65,0-.02,0-.06.06-.09.04-.04.13-.03.13-.03l4.86.73s.1,0,.16.06c.08.05.11.14.11.14l.26.72s.03.07,0,.13c-.04.05-.13.03-.13.03l-5.35-.84s-.07,0-.11-.05c-.03-.05-.03-.12-.02-.15"/>
        <path class="cls-17" d="M165.21,348.39c-.21.21-.25.17-.32.17-.1,0-.18-.07-.18-.07l-7.94-5.56s-.09-.07-.11-.11c-.03-.08.03-.13.05-.15.16-.2.3-.38.42-.54,0-.02.05-.1.14-.09.1,0,.35.2.35.2l7.83,5.32s.15.08.15.28c0,.15-.2.3-.38.54"/>
        <path class="cls-17" d="M173.03,378.2c.1.23.15.4.24.66,0,.03.04.14,0,.19-.03.07-.13.04-.13.04l-6.17-1.3s-.16-.04-.21-.1c-.08-.08,0-.21.03-.29.08-.2.08-.23.11-.44,0-.02.02-.12.12-.16.11-.04.25,0,.25,0l5.47,1.17s.11,0,.19.07c.06.05.09.12.1.16"/>
        <path class="cls-17" d="M191.55,311.57c.08.16.17.3.24.44,0,.03.06.09.13.1.09,0,.16-.03.16-.03l3.17-2.03s.12-.02.13-.15c0-.11-.09-.18-.13-.2-.13-.14-.26-.26-.4-.42-.03-.02-.1-.08-.2-.08-.09,0-.17.07-.17.07l-2.88,2.07s-.06.04-.08.1c-.02.07,0,.12.02.14"/>
        <path class="cls-17" d="M190.85,310.31c.09.13.1.19.19.34.02.03.05.07.12.08.09,0,.16-.05.16-.05l2.65-2.08s.09-.06.11-.11c.02-.06-.03-.13-.05-.15-.17-.2-.3-.37-.42-.53-.02-.02-.06-.11-.15-.1-.09,0-.17.1-.17.1l-2.39,2.22s-.08.06-.09.15c0,.05.03.1.04.13"/>
        <path class="cls-17" d="M186.03,311.57c-.08.16-.17.3-.24.44-.02.03-.06.09-.14.1-.07,0-.16-.03-.16-.03l-3.17-2.03s-.11-.02-.11-.15c0-.11.07-.18.11-.2.13-.14.26-.26.41-.42.03-.02.09-.08.19-.08.09,0,.18.07.18.07l2.87,2.07s.06.04.09.1c.02.07,0,.12-.02.14"/>
        <path class="cls-17" d="M186.72,310.31c-.09.13-.1.19-.19.34,0,.03-.05.07-.12.08-.09,0-.16-.05-.16-.05l-2.65-2.08s-.09-.06-.11-.11c-.03-.06.03-.13.04-.15.17-.2.3-.37.42-.53.02-.02.06-.11.15-.1.1,0,.17.1.17.1l2.39,2.22s.08.06.09.15c0,.05-.02.1-.04.13"/>
        <path class="cls-20" d="M244.32,257.49l-45.22,7.95,49.57,8.54s2.09.37,1.7,2.44c-.39,2.07-2.45,1.58-2.45,1.58l-59.8-10.62-58.96,10.38s-2.15.51-2.58-1.5c-.42-2,1.75-2.44,1.75-2.44l48.88-8.37-40.12-7.12.8-3.41,50.27,8.66,60.24-10.33c.74-.18,1.42-.3,2.04-.43,7.24-2.03,7.47-3.94,10.42-8.91.93-1.17,1.72-2.4,4.99-2.35,5.71.1,12.09,2.41,13.05,7.9.97,5.52-3.56,9.53-9.56,11.93-3.04,1.21-4.22.25-5.49-.51-4.57-3.74-5.24-5.57-13.11-4.46-.5.11-1.23.2-1.82.29l-4.62.8"/>
        <path class="cls-15" d="M187.74,270.76s62.4,11.28,62.32,11.32c6.38,14.27,9.9,30.06,9.9,46.13,0,45.09-27.58,88.21-69.35,109.47l-1.9.98-1.9-.98c-41.76-21.26-69.35-64.38-69.35-109.47,0-16.22,3.54-32.15,10.03-46.54.16.21,60.25-10.91,60.25-10.91"/>
        <path class="cls-25" d="M124.05,328.18c0-14.57,2.88-28.53,8.17-41.45-.03.21,55.69-10.21,55.69-10.35.23-.09,57.81,10.56,57.41,10.64,5.21,12.84,8.04,26.69,8.04,41.16,0,37.12-18.74,70.33-48.23,92.5,0,0-4.3,3.71-8.21,6.16-3.92,2.46-8.22,4.4-8.22,4.4,0,0-4.37-2.16-9.42-5.36-5.04-3.2-7.01-5.2-7.01-5.2-29.5-22.17-48.24-55.38-48.24-92.5"/>
        <g class="cls-27">
          <path class="cls-2" d="M52.73,552.46h234.15V201.24H52.73v351.22Z"/>
        </g>
        <path class="cls-7" d="M124.05,328.18c0-14.57,2.88-28.53,8.17-41.45-.03.21,55.69-10.21,55.69-10.35.23-.09,57.81,10.56,57.41,10.64,5.21,12.84,8.04,26.69,8.04,41.16,0,37.12-18.74,70.33-48.23,92.5,0,0-4.3,3.71-8.21,6.16-3.92,2.46-8.22,4.4-8.22,4.4,0,0-4.37-2.16-9.42-5.36-5.04-3.2-7.01-5.2-7.01-5.2-29.5-22.17-48.24-55.38-48.24-92.5Z"/>
        <path class="cls-25" d="M90.42,400.08c-26.28-42.55-32.43-101.53-14.59-151.38,4.54-12.66,9.52-23.64,15.97-34.43.91-1.78,4.12-6.18,1.83-7.03-1.02-.48-4.97,3.34-6.29,4.93-13.65,16.42-23.91,34.66-31.7,56.43-16.19,45.25-14.46,92.54,1.46,133.25,3.41,7.93,33.56.94,33.31-1.77Z"/>
        <path class="cls-5" d="M90.42,400.08c-26.28-42.55-32.43-101.53-14.59-151.38,4.54-12.66,9.52-23.64,15.97-34.43.91-1.78,4.12-6.18,1.83-7.03-1.02-.48-4.97,3.34-6.29,4.93-13.65,16.42-23.91,34.66-31.7,56.43-16.19,45.25-14.46,92.54,1.46,133.25,3.41,7.93,33.56.94,33.31-1.77Z"/>
        <path class="cls-23" d="M78.14,401.24c-32.81-50.19-44.56-101.15-30.11-159.97,3.52-14.37,8.12-28.1,13.98-40.97.64-1.32,3.63-7.09,1.75-7.82-1.8-1.44-5.09,3.97-6.48,5.87-13.15,19.84-23.08,42.4-28.82,67.06-11.83,50.87-4.23,93.25,18.66,134.89,1.63,4.02,37.43,9.17,31.03.95Z"/>
        <path class="cls-5" d="M78.14,401.24c-32.81-50.19-44.56-101.15-30.11-159.97,3.52-14.37,8.12-28.1,13.98-40.97.64-1.32,3.63-7.09,1.75-7.82-1.8-1.44-5.09,3.97-6.48,5.87-13.15,19.84-23.08,42.4-28.82,67.06-11.83,50.87-4.23,93.25,18.66,134.89,1.63,4.02,37.43,9.17,31.03.95Z"/>
        <path class="cls-11" d="M130.46,258.12s-8.5-.8-10.07,1.39c-1.58,2.21-36.08-11.75-36.08-11.75,0,0,34.36,5.76,44.69,8.39,10.47,2.65,1.46,1.97,1.46,1.97"/>
        <path class="cls-20" d="M131.63,252.9s-8.6-2.02-9.29-4.61c-.67-2.57-38.04-.54-38.04-.54,0,0,34.73,5.71,45.4,6.56,10.81.87,1.93-1.42,1.93-1.42"/>
        <path class="cls-21" d="M283.74,111.03c1.34,1.31,11.09,11.96,10.49,24.69,12.06,2.25,33.15-.05,36.42-.69,15.28-2.96,31.4-7.84,36.18-10.47,3.88-2.17,4.31-4.47,6.33-10.19,2.9-8.19-10.51-1.46-24.9,4.27-9.35,3.72-15.46,6.11-19.05,7.25.1-.74.17-1.47.22-2.22,9.69-4.42,39.21-16.67,44.35-20.51,5.71-4.27,3.56-13.09,1.22-13.64-1.02-.25-25.83,14.05-45.37,25.29-.07-.67-.14-1.37-.22-2.07,9.45-5.6,19.93-11.95,27.6-16.98,21.95-14.41,20.29-11.42,18.55-21.32-1.37-7.81-7.79-.2-7.79-.2l-7.15,6.06s-20.24,16.16-32.38,25.6c-.15-.64-.3-1.29-.47-1.95,11.84-9.91,30.99-26.54,34.86-30.58,5.33-5.54,12.88-8.73,7.53-18.57-2.38-4.38-3.37-7.02-5.24-6.31-1.69,2.77-3.98,4.79-5.38,6.63-10.73,14.03-23.79,28.61-34.65,40.11-.3-.73-.62-1.48-.97-2.23,6.76-7.29,13.34-14.72,17.53-20.23,20.22-26.66,22.66-28.89,19.85-34.87-1.38-2.94-7.12-10.72-8.5-10.06.12,3.83-4.95,13.28-12.46,24.47-10.56,15.68-16.92,25.13-21.38,31.65-.61-.94-1.27-1.86-1.95-2.8,13.14-20.96,29.91-48.68,30.04-54.95.1-4.81-.94-8.26-8.17-13.3-2.57-1.79-7.63-3.76-9.7-3.03,5.08,7.96-1.3,25.54-2.43,28.4-4.97,12.47-10.95,24.63-16.52,34.98-.72-.72-1.47-1.43-2.24-2.15,6.46-13.6,12.77-28.59,14.9-37.93,3.51-15.47-.48-27.43-13.18-33.18-5.5,40.23-16.68,76.27-31.87,105.02.17.16.32.3.47.46,1.04,1.05,2.78,2.38,5.43,5.55"/>
        <path class="cls-21" d="M93.68,111.03c-1.34,1.31-11.09,11.96-10.5,24.69-12.05,2.25-33.15-.05-36.4-.69-15.29-2.96-31.42-7.84-36.2-10.47-3.88-2.17-4.3-4.47-6.33-10.19-2.89-8.19,10.51-1.46,24.91,4.27,9.35,3.72,15.46,6.11,19.04,7.25-.09-.74-.16-1.47-.22-2.22-9.68-4.42-39.2-16.67-44.34-20.51-5.71-4.27-3.55-13.09-1.21-13.64,1.02-.25,25.82,14.05,45.37,25.29.05-.67.13-1.37.21-2.07-9.44-5.6-19.94-11.95-27.6-16.98C-1.55,81.35.11,84.34,1.85,74.44c1.37-7.81,7.78-.2,7.78-.2l7.16,6.06s20.24,16.16,32.38,25.6c.15-.64.3-1.29.47-1.95-11.85-9.91-30.98-26.54-34.86-30.58-5.33-5.54-12.88-8.73-7.53-18.57,2.37-4.38,3.37-7.02,5.24-6.31,1.68,2.77,3.98,4.79,5.38,6.63,10.72,14.03,23.79,28.61,34.64,40.11.31-.73.62-1.48.97-2.23-6.76-7.29-13.33-14.72-17.52-20.23-20.22-26.66-22.67-28.89-19.86-34.87,1.4-2.94,7.12-10.72,8.5-10.06-.11,3.83,4.95,13.28,12.47,24.47,10.55,15.68,16.92,25.13,21.38,31.65.61-.94,1.27-1.86,1.95-2.8-13.15-20.96-29.91-48.68-30.03-54.95-.11-4.81.93-8.26,8.15-13.3,2.57-1.79,7.65-3.76,9.72-3.03-5.09,7.96,1.29,25.54,2.42,28.4,4.97,12.47,10.94,24.63,16.52,34.98.72-.72,1.46-1.43,2.24-2.15-6.46-13.6-12.78-28.59-14.89-37.93-3.51-15.47.47-27.43,13.17-33.18,5.5,40.23,16.69,76.27,31.87,105.02-.17.16-.32.3-.48.46-1.04,1.05-2.77,2.38-5.42,5.55"/>
        <path class="cls-18" d="M92.36,405.89c21.76,32.02,56.85,52.75,96.37,52.75s74.35-20.64,96.16-52.52c.12-.18.24-.36.37-.54l.81.36c6.03,2.53,13.89,3.93,22.22,3.93,6.56,0,12.83-.87,18.12-2.48-26.05,53.6-77.93,90.15-137.69,90.15s-111.77-36.66-137.73-90.37c5.29,1.58,11.54,2.45,18.07,2.45,8.34,0,16.21-1.41,22.22-3.93l.61-.27c.16.15.3.31.45.47"/>
        <path class="cls-16" d="M162.11,183.81c-10.52-1.35-15.68-2.61-18.38-3.29-14.85-3.7-10.6-11.74-10.6-11.74-18.88-7.31-15.06-14.34-15.06-14.34-17.06-4.71-14.77-10.63-14.77-10.63-8.34-.53-13.42-2.63-16.49-5.24-.82-.51-1.16-.24-1.54-.26-.29-.04-13.94,4.15-54.36-2.72-8-1.38-17.54-3.3-19.86-3.78.74,2.57,1.17,3.87,2.57,6.1.46.73.93,1.88,2.45,3.95,1.28,2.04,5.88,3.7,8.96,4.48,7.69,1.92,22.17.64,29.73.02.37.71.77,1.43,1.18,2.14-9.98,1.67-20.91,2.38-33.3,2.79,2.01,2.97,4.37,5.91,7.92,8.19,7.83,3.08,20.82-1.1,29.95-3.99.47.62.94,1.26,1.43,1.88-7.09,2.68-24.08,6.44-27.76,7.04,2,2.53,4.65,6.2,9.27,6.48,5.21,1.13,20.31-4.58,24.55-6.61.5.51,1.01,1.02,1.51,1.52-4.77,3.09-22.15,8.55-24.07,9.01,1.93,2.12,5.79,5.77,10.98,5.78,8.54-1.32,16.65-6.07,20.54-8.17.59.46,1.17.92,1.77,1.39-5.15,3.16-11.71,6.92-20.31,10.15,1.71,1.56,4.21,4.01,8.06,4.9,7.93,2.22,15.57-3.4,22.61-7.9.65.4,1.31.81,1.96,1.19-3.07,2.67-8.56,6.31-17.68,10.81,1.37,1.61,6.74,3.41,9.4,4.11,9.02.69,15.82-5.25,20.48-8.42l1.83.84c-5,4.02-8.35,5.88-16.24,10.83,2.08,1.23,4.82,3.11,9.17,3.4,7.51.78,14.66-4.81,19.99-8.96.7.26,1.42.52,2.13.77-1.95,1.61-10.16,7.7-15.76,10.93.16-.07,4.48,3.62,11.79,3.3,13.19.52,25.98-10.39,25.98-10.39l19.96-15.57"/>
        <path class="cls-16" d="M235.31,199.37s12.79,10.9,25.97,10.39c7.3.32,11.63-3.37,11.79-3.3-5.6-3.23-13.81-9.32-15.76-10.93.71-.25,1.42-.51,2.13-.77,5.33,4.15,12.48,9.74,19.99,8.96,4.35-.28,7.1-2.17,9.17-3.4-7.9-4.96-11.24-6.81-16.25-10.83l1.83-.84c4.66,3.17,11.45,9.12,20.48,8.42,2.65-.7,8.03-2.5,9.4-4.11-9.12-4.51-14.6-8.14-17.69-10.81.66-.38,1.32-.79,1.97-1.19,7.05,4.5,14.69,10.11,22.6,7.9,3.87-.89,6.36-3.34,8.07-4.9-8.6-3.23-15.16-6.99-20.31-10.15.6-.47,1.18-.93,1.76-1.39,3.89,2.1,12,6.85,20.55,8.17,5.19,0,9.05-3.66,10.97-5.78-1.91-.46-19.3-5.91-24.06-9.01.51-.5,1.02-1.02,1.51-1.52,4.24,2.03,19.34,7.74,24.54,6.61,4.64-.28,7.28-3.95,9.28-6.48-3.68-.6-20.67-4.35-27.76-7.04.5-.62.97-1.26,1.43-1.88,9.13,2.89,22.13,7.08,29.95,3.99,3.54-2.27,5.9-5.22,7.92-8.19-12.4-.41-23.32-1.12-33.3-2.79.4-.7.81-1.42,1.18-2.14,7.56.62,22.04,1.9,29.73-.02,3.08-.78,7.68-2.44,8.96-4.48,1.52-2.07,1.99-3.22,2.45-3.95,1.4-2.23,1.82-3.53,2.57-6.1-2.32.48-11.86,2.4-19.86,3.78-40.42,6.87-54.07,2.68-54.37,2.72-.37.02-.71-.24-1.54.26-3.06,2.62-8.15,4.71-16.48,5.24,0,0,2.29,5.91-14.77,10.63,0,0,3.82,7.03-15.06,14.34,0,0,4.25,8.04-10.6,11.74-2.65.67-10.17,2.28-20.39,3.61l21.98,15.25"/>
        <path class="cls-25" d="M163.88,181.97c-4.9-.6-11.05-1.55-17.2-2.78-15.92-3.16-10.53-11.7-10.53-11.7-21.04-8.34-15.17-14.67-15.17-14.67-20.19-5.39-14.5-11.04-14.5-11.04-12.67-.48-21.11-5.58-20.91-8.04.06-4.72,1.72-11.65,8.7-19.45,5.46-6.1,6.65-6.61,9.52-1.62,14.86,25.54,33,44.5,53.13,54.37,1.2.42,2.99,1.07,5.5,2.04,2.43.84,4.69.7,6.69.11l-5.22,12.8"/>
        <path class="cls-12" d="M81.33,438.11l1.73,1.91,1.8-1.63-1.72-1.9-1.81,1.62M84.53,435.69l1.26,1.41,10.25-8.77-1.71-1.9-9.8,9.27Z"/>
        <polyline class="cls-12" points="88.52 446.04 90.3 447.68 96.26 441.28 96.29 441.32 93.13 450.32 95.11 452.18 98.25 442.42 106.82 439.18 105.05 437.54 96.82 440.76 96.79 440.73 102.22 434.9 100.45 433.25 88.52 446.04"/>
        <polyline class="cls-17" points="100.5 456.58 105.76 460.54 106.97 458.92 103.65 456.41 107.2 451.7 110.33 454.05 111.55 452.43 108.42 450.06 111.72 445.69 115.05 448.2 116.27 446.58 111.02 442.62 100.5 456.58"/>
        <polyline class="cls-17" points="119.89 469.59 125.71 472.67 126.66 470.88 122.98 468.92 125.77 463.71 129.22 465.55 130.18 463.76 126.72 461.91 129.28 457.09 132.96 459.05 133.92 457.24 128.1 454.15 119.89 469.59"/>
        <path class="cls-12" d="M137.69,461.91l2.65,1.07,1.06-2.65-2.65-1.06-1.05,2.65M132.2,475.6l2.65,1.06,1.07-2.65-2.65-1.06-1.07,2.65Z"/>
        <polyline class="cls-17" points="148.54 481.55 150.5 482.07 160.14 466.27 158.18 465.74 148.54 481.55"/>
        <polyline class="cls-17" points="162.05 484.66 164.45 485 167.87 479.01 169.33 485.68 171.87 486.03 169.53 476.79 174.19 468.72 171.8 468.38 168.68 474.16 167.28 467.74 164.74 467.38 167.04 476.2 162.05 484.66"/>
        <path class="cls-12" d="M184.19,471.92h.05l1.35,8.44-3.07-.05,1.68-8.39M178.82,486.75l2.42.03.87-4.43,3.78.06.72,4.47,2.43.04-3.26-17.54-2.81-.04-4.15,17.41Z"/>
        <path class="cls-12" d="M197.4,470.94l1.15-.11c1.49-.13,1.66.11,1.88,2.68.22,2.6,0,2.99-1.9,3.15l-.63.06-.5-5.79M196.32,486.54l2.42-.21-.67-7.57.83-.06c1.59-.15,1.91.26,2.05,1.9l.35,3.93c.06.69.15,1.12.43,1.53l2.27-.19c-.21-.72-.29-1.59-.35-2.22l-.33-3.79c-.15-1.63-.76-2.44-2.42-2.46v-.04c1.92-.79,2.14-1.83,1.94-4.16-.34-3.82-.78-4.73-4.3-4.42l-3.74.33,1.52,17.41Z"/>
        <path class="cls-12" d="M211.26,469.1l1.13-.23c1.46-.32,1.66-.12,2.2,2.42.56,2.56.36,2.97-1.5,3.37l-.61.13-1.21-5.68M212.1,484.71l2.37-.5-1.58-7.44.8-.18c1.57-.33,1.94.05,2.28,1.66l.81,3.86c.16.69.29,1.09.62,1.47l2.23-.48c-.29-.67-.48-1.53-.6-2.14l-.8-3.73c-.33-1.6-1.05-2.32-2.7-2.15v-.05c1.82-1.01,1.9-2.05,1.42-4.35-.79-3.75-1.35-4.59-4.8-3.86l-3.67.77,3.63,17.1Z"/>
        <path class="cls-12" d="M226.88,465.41l.04-.03,4.04,7.55-2.93.96-1.15-8.48M226.63,481.16l2.3-.74-.62-4.49,3.59-1.17,2.13,3.99,2.31-.74-8.78-15.53-2.67.87,1.74,17.81Z"/>
        <polyline class="cls-17" points="251.54 471.25 253.32 470.27 249.27 452.2 247.5 453.18 251.54 471.25"/>
        <polyline class="cls-17" points="263.02 464.59 264.67 463.42 258.77 445.86 257.1 447.03 263.02 464.59"/>
        <polyline class="cls-12" points="274.24 456.27 276.09 454.7 270.48 448 270.51 447.97 279.06 452.21 281.14 450.47 271.84 446.16 269.68 437.27 267.83 438.82 270.02 447.38 269.97 447.41 264.86 441.31 263.01 442.86 274.24 456.27"/>
        <polyline class="cls-17" points="286.29 445.36 290.79 440.55 289.3 439.17 286.46 442.21 282.15 438.18 284.82 435.31 283.34 433.92 280.65 436.79 276.65 433.06 279.5 430.02 278.01 428.63 273.52 433.46 286.29 445.36"/>
        <path class="cls-25" d="M287,400.08c26.28-42.55,32.43-101.53,14.58-151.38-4.53-12.66-9.51-23.64-15.96-34.43-.92-1.78-4.13-6.18-1.83-7.03,1.01-.48,4.97,3.34,6.29,4.93,13.65,16.42,23.9,34.66,31.7,56.43,16.2,45.25,14.46,92.54-1.47,133.25-3.4,7.93-33.55.94-33.3-1.77Z"/>
        <path class="cls-5" d="M287,400.08c26.28-42.55,32.43-101.53,14.58-151.38-4.53-12.66-9.51-23.64-15.96-34.43-.92-1.78-4.13-6.18-1.83-7.03,1.01-.48,4.97,3.34,6.29,4.93,13.65,16.42,23.9,34.66,31.7,56.43,16.2,45.25,14.46,92.54-1.47,133.25-3.4,7.93-33.55.94-33.3-1.77Z"/>
        <path class="cls-23" d="M299.28,401.24c32.8-50.19,44.56-101.15,30.11-159.97-3.53-14.37-8.11-28.1-13.98-40.97-.64-1.32-3.64-7.09-1.75-7.82,1.8-1.44,5.09,3.97,6.48,5.87,13.15,19.84,23.09,42.4,28.81,67.06,11.85,50.87,4.25,93.25-18.65,134.89-1.63,4.02-37.43,9.17-31.03.95Z"/>
        <path class="cls-5" d="M299.28,401.24c32.8-50.19,44.56-101.15,30.11-159.97-3.53-14.37-8.11-28.1-13.98-40.97-.64-1.32-3.64-7.09-1.75-7.82,1.8-1.44,5.09,3.97,6.48,5.87,13.15,19.84,23.09,42.4,28.81,67.06,11.85,50.87,4.25,93.25-18.65,134.89-1.63,4.02-37.43,9.17-31.03.95Z"/>
        <path class="cls-15" d="M212.81,397.6c-.65,1.94-2.44,2.33-2.44,2.33-4.18,1.36-6.27,2.57-6.27,2.57-1.56.81-.66,1.85-.66,1.85.59.69,4.23.11,4.23.11,4.07-.42,4.99-1.07,4.99-1.07,1.68-1.01,6.99-8.02,6.99-8.02,6.64-8.15,6.74-15.47,6.4-16.95,0-.07-.03-.14-.04-.21,0-.02-.02-.08-.08-.11-.08-.05-.17-.03-.17-.03l-5.74.92s-.08,0-.14.05c-.05.04-.07.11-.08.13-1.29,3.44-3.09,8.19-3.09,8.19l-3.9,10.25"/>
        <path class="cls-15" d="M199.04,395.43s-.07,0-.11,0c-.33.02-.61.29-.61.62,0,.2.12.36.26.46.11.07.12.21.09.27-.23.51-.49.92-.72,1.14-1.23,1.17-2.96,1.58-5.34,3.44,0,0-.73.51-.26,1.26.48.74,2.28-.08,2.28-.08,0,0,3.14-1.57,5.05-1.68,0,0,1.73-.14,2.42-1.42,0,0,.33-.8.99-1.92.02-.04.08-.11.2-.08.32.09.67-.12.75-.43.06-.21,0-.44-.17-.59-.02-.02-.06-.08-.02-.15.06-.1.14-.2.2-.3.03-.04.11-.04.13-.02.05.02.11.03.16.05.33.09.67-.11.76-.44.06-.22-.03-.45-.19-.59-.09-.06-.03-.16-.03-.16l.18-.24s.06-.09.16-.05c.04.02.08.04.13.05.32.08.67-.12.75-.44.05-.21,0-.42-.16-.56-.03-.05-.1-.1,0-.21,2.58-3.72,6.96-10.77,5.53-14.4,0,0-.05-.14-.16-.3-.13-.18-.42-.11-.42-.11l-6.72,1.38s-.26.04-.34.26c-.94,2.71-2.03,6.2-3.12,10.38,0,0-.15.58-.37,1.4,0,.06-.06.14-.23.15-.34.03-.6.29-.6.63,0,.19.11.34.25.45.24.1.15.28.15.28l-.05.16s-.04.15-.24.12h-.05c-.35.02-.61.3-.6.62,0,.21.13.4.3.5.11.07.11.19.1.24-.02.07-.04.12-.06.17-.02.06-.13.16-.24.14"/>
        <path class="cls-15" d="M229.24,305.51c-.36-.28-1.16-1.8-6.85-2.37,0,0-1.48.08-1.13-3.06,0,0,.03-1.19,1.51-2.07,0,0,1.96-.85,2.37-2.31,0,0,.12-.3.17-.72.11-.66.2-2.49-1.79-3.55-.45-.19-.45,0-.72-.16-.2-.11-.22-.27-.38-.34,0,0-.26-.11-.45,0,0,0-.18.11-.42.05,0,0-.25-.07-.3-.3-.04-.24-.38-.43-.71-.21,0,0-.17.19-.43.13,0,0-.25-.02-.29-.28,0,0-.09-.39-.54-.36,0,0-.27-.02-.44.2,0,0-.09.25-.32.26h-.07c-.07-.03-.21-.08-.24-.28,0,0-.14-.39-.62-.37,0,0-.48,0-.61.46,0,0,0,.28-.2.35,0,0-.22.11-.3-.15,0,0-.17-.46-.75-.44,0,0-.7,0-.75.67,0,0-.11.66.21,2.17.09,1.16-.18,1.41-.18,1.41-1.54,1.74-1.72,2.9-1.71,3.37v.06s0,.07,0,.09c.03.36.25,2.14,1.41,2.72,0,0,.54.29,1.21.02l.62-.3s.65-.3.69.13c.07.56.12,1.61-.2,2.17,0,0-.13.32-.9.23,0,0-4.72-.72-8.12,4.04,0,0-.87,1.1-1.28,1.77-.1.2-.08.32.15.33.47.02,1.4.09,2.04.19.69.13,1.43.28,1.79.4.19.04.17.2.17.2l-.11.56s.02.2-.17.14c-.47-.17-1.97-.61-4.28-.59,0,0-4.06,0-4.23,2.39,0,0-.09,1.05,1.34,2.15,0,0,.15.16.45.34-.17.25-.32.61-.46.99,0,0-.02.02-.02.04-.22.54-.37,1.03-.44,1.35-.14.53-.47.76-.7.77-.23,0-.37-.41-.37-.41-.87-2.09-4.59-5.62-5.63-6.59-.06-.06-.11-.15-.25-.16-.12,0-.28.09-.28.09l-3.25,1.99s-.18.13-.2.22c-.05.15.02.21.04.26,3.53,6.55,5.05,7.38,5.05,7.38,0,0,2.19,2.38,4.82,2.28,1.55-.05,3.76-2.37,5.34-4.24.6-.68,1.32-1.53,1.73-2.09.2.02.48.05.76.07.08,0,.13.04.12.13-.14,1.16-1.28,11.32-.42,20.35,0,0,.38,8.03,1.65,9.99.14.2.36.02.36.02l7.92-5.52s.08-.04.1-.14c.23-.91,2.24-8.82,3.19-14.17,0,0,1.81-8.31,3.58-12.63,0,0,.05-.13.14-.19.09-.07.23-.09.25-.1.54-.08,1.75-.34,3-.94,0,0,1.24-.55,2.45-1.61,0,0,1.67-1.35,1.61-2.73,0,0,.03-1.82-3.04-1.58-.06,0-.17,0-.24-.09-.26-.4-1.12-1.64-1.43-1.88"/>
        <path class="cls-15" d="M188.58,308.67s.57.22,1.2.7c0,0,.39.41.81,0,.73-.69,1.59-1.55,2.04-2.03.59-.63.43-1.45-.32-2.25,0,0-1.33-1.33-2.27-1.18,0,0-.49.19-.76.33,0,0-.18.1-.78.07,0,0-.87-.09-1.89.88,0,0-1.1,1.24-.39,2.34,0,0,.33.6,1.22.88.56.18,1.15.26,1.15.26"/>
        <path class="cls-15" d="M227.63,314.97c-.18.04-.24.11-.21.28.15,1.16.73,2.55.73,2.55.72,2.12,4.08,6.17,4.08,6.17,1.3,1.67.91,3.95.91,3.95-.09,1.92.23,5.52.23,5.52.28,3.05,1.33,5.5,1.64,6.18.1.26.44.22.44.22l2.96-.37s.18,0,.26-.08c.07-.08.11-.22.11-.26.18-1.7.22-6.43.22-6.43-.11-2.95-2.28-7.85-2.28-7.85-.63-1.36-.72-2.94-.72-2.94.02-.91-.57-4.74-.57-4.74-.45-2.74-1.5-4.34-1.91-4.88-.11-.14-.25-.15-.38-.03-.73.62-1.64,1.21-2.67,1.72-.96.46-1.91.78-2.83.99"/>
        <path class="cls-15" d="M236.1,341.14c-.03.17-.21.18-.21.18l-.23.03c-.26.03-.37.22-.4.83-.03.6.15,3.66,1.58,4.54,0,0,.82.65,1.75.61,0,0,1.19-.02,2.22-1.34,0,0,.74-.65.05-1.83,0,0-.3-.55-.89-.89-1.07-.64-.84-1.67-.84-1.67,0,0,.06-.41-.8-.51-.2-.02-.27-.12-.3-.25-.11-.42-.38-.67-.89-.66-.57.02-1.04.43-1.02.91v.05"/>
        <path class="cls-15" d="M221.2,343.43l-7.81,5.44c-.29.27-.38.34-.2,1.11.16.7-.19,2.97-1.02,4.65-.83,1.69-2.3,4.3-3.92,9.16-1.19,3.59-1.86,5.96-1.99,8.28,0,0-.12.38.08.92,0,0,.2.15,0,.61,0,0-.53,1.12-1.38,3.39,0,0-.08.15,0,.21.05.07.21.02.21.02l5.22-1.08s.08-.03.17-.08c.07-.07.1-.15.11-.18.11-.4.31-.81.66-1.21,0,0,2.37-2.62,3.14-3.78,0,0,2.11-2.35,3.87-7.93,0,0,2.73-7.17,5.76-8.08,3.05-.91,5.11-2.74,3.66-6.31,0,0-1.09-3.47-4.22-4.82,0,0-1.63-.79-2.33-.3"/>
        <path class="cls-15" d="M225.78,375.31c-.11-1.31.69-3.57.69-3.57,0,0,.73-2.23.72-5.08,0-2.8-2.16-9.37-2.74-11.04,0-.05-.03-.09-.09-.13-.07-.03-.16,0-.2,0-2.66,1.09-5.09,7.46-5.51,8.66-.09.21-.05.34-.03.42.6,2.99,2.17,7.26,2.17,7.26.68,2.41.26,3.89.26,3.89,0,.03-.05.12-.09.27-.02.06.16.15.16.15l4.51-.65s.06,0,.11-.05c.06-.05.04-.13.04-.15"/>
        <path class="cls-15" d="M164.61,397.6c.64,1.94,2.43,2.33,2.43,2.33,4.19,1.36,6.27,2.57,6.27,2.57,1.58.81.68,1.85.68,1.85-.59.69-4.24.11-4.24.11-4.07-.42-4.98-1.07-4.98-1.07-1.69-1.01-7.01-8.02-7.01-8.02-6.63-8.15-6.74-15.47-6.4-16.95.02-.07.04-.14.05-.21,0-.02.02-.08.08-.11.08-.05.16-.03.16-.03l5.75.92s.08,0,.14.05c.06.04.08.11.08.13,1.29,3.44,3.08,8.19,3.08,8.19l3.91,10.25"/>
        <path class="cls-15" d="M178.38,395.43s.06,0,.1,0c.35.02.62.29.61.62,0,.2-.1.36-.24.46-.13.07-.14.21-.1.27.24.51.49.92.72,1.14,1.23,1.17,2.96,1.58,5.34,3.44,0,0,.73.51.26,1.26-.48.74-2.28-.08-2.28-.08,0,0-3.14-1.57-5.05-1.68,0,0-1.73-.14-2.41-1.42,0,0-.34-.8-1-1.92-.03-.04-.09-.11-.2-.08-.33.09-.67-.12-.75-.43-.07-.21,0-.44.17-.59.02-.02.06-.08.02-.15-.07-.1-.15-.2-.2-.3-.03-.04-.1-.04-.13-.02-.05.02-.11.03-.16.05-.34.09-.68-.11-.76-.44-.06-.22.02-.45.19-.59.08-.06.04-.16.04-.16l-.19-.24s-.07-.09-.16-.05c-.04.02-.09.04-.12.05-.34.08-.68-.12-.76-.44-.06-.21,0-.42.16-.56.03-.05.1-.1,0-.21-2.58-3.72-6.97-10.77-5.53-14.4,0,0,.04-.14.16-.3.13-.18.43-.11.43-.11l6.72,1.38s.25.04.33.26c.94,2.71,2.03,6.2,3.12,10.38,0,0,.14.58.36,1.4.02.06.07.14.23.15.35.03.62.29.61.63,0,.19-.12.34-.26.45-.23.1-.15.28-.15.28l.06.16s.04.15.23.12h.06c.34.02.61.3.6.62,0,.21-.13.4-.3.5-.11.07-.12.19-.09.24.02.07.03.12.05.17.02.06.13.16.24.14"/>
        <path class="cls-15" d="M148.19,305.51c.36-.28,1.16-1.8,6.84-2.37,0,0,1.48.08,1.14-3.06,0,0-.02-1.19-1.5-2.07,0,0-1.97-.85-2.39-2.31,0,0-.1-.3-.16-.72-.11-.66-.2-2.49,1.79-3.55.44-.19.45,0,.72-.16.2-.11.21-.27.37-.34,0,0,.27-.11.45,0,0,0,.18.11.42.05,0,0,.27-.07.3-.3.05-.24.39-.43.71-.21,0,0,.18.19.44.13,0,0,.25-.02.29-.28,0,0,.09-.39.54-.36,0,0,.26-.02.43.2,0,0,.1.25.33.26h.07c.08-.03.21-.08.24-.28,0,0,.15-.39.62-.37,0,0,.48,0,.61.46,0,0,0,.28.19.35,0,0,.22.11.31-.15,0,0,.18-.46.76-.44,0,0,.68,0,.73.67,0,0,.12.66-.21,2.17-.09,1.16.19,1.41.19,1.41,1.52,1.74,1.71,2.9,1.7,3.37v.06s0,.07,0,.09c-.03.36-.25,2.14-1.4,2.72,0,0-.56.29-1.22.02l-.62-.3s-.64-.3-.7.13c-.06.56-.12,1.61.2,2.17,0,0,.13.32.9.23,0,0,4.72-.72,8.12,4.04,0,0,.87,1.1,1.28,1.77.11.2.08.32-.15.33-.47.02-1.4.09-2.04.19-.7.13-1.44.28-1.8.4-.19.04-.15.2-.15.2l.1.56s-.02.2.18.14c.46-.17,1.96-.61,4.27-.59,0,0,4.06,0,4.24,2.39,0,0,.08,1.05-1.34,2.15,0,0-.16.16-.46.34.17.25.32.61.47.99,0,0,0,.02,0,.04.22.54.37,1.03.44,1.35.14.53.47.76.7.77.22,0,.36-.41.36-.41.88-2.09,4.6-5.62,5.64-6.59.05-.06.11-.15.25-.16.11,0,.27.09.27.09l3.26,1.99s.18.13.2.22c.05.15,0,.21-.04.26-3.54,6.55-5.06,7.38-5.06,7.38,0,0-2.18,2.38-4.81,2.28-1.56-.05-3.77-2.37-5.34-4.24-.6-.68-1.31-1.53-1.74-2.09-.21.02-.46.05-.75.07-.09,0-.13.04-.12.13.14,1.16,1.29,11.32.42,20.35,0,0-.38,8.03-1.66,9.99-.12.2-.36.02-.36.02l-7.91-5.52s-.08-.04-.1-.14c-.22-.91-2.24-8.82-3.2-14.17,0,0-1.8-8.31-3.58-12.63,0,0-.04-.13-.13-.19-.09-.07-.23-.09-.25-.1-.54-.08-1.75-.34-3-.94,0,0-1.24-.55-2.45-1.61,0,0-1.67-1.35-1.62-2.73,0,0-.02-1.82,3.05-1.58.06,0,.17,0,.24-.09.25-.4,1.12-1.64,1.43-1.88"/>
        <path class="cls-15" d="M188.84,308.67s-.57.22-1.21.7c0,0-.38.41-.81,0-.73-.69-1.59-1.55-2.03-2.03-.6-.63-.43-1.45.32-2.25,0,0,1.33-1.33,2.26-1.18,0,0,.49.19.77.33,0,0,.18.1.79.07,0,0,.87-.09,1.88.88,0,0,1.09,1.24.39,2.34,0,0-.34.6-1.22.88-.56.18-1.15.26-1.15.26"/>
        <path class="cls-15" d="M149.79,314.97c.18.04.23.11.21.28-.15,1.16-.73,2.55-.73,2.55-.72,2.12-4.08,6.17-4.08,6.17-1.3,1.67-.9,3.95-.9,3.95.08,1.92-.25,5.52-.25,5.52-.27,3.05-1.32,5.5-1.63,6.18-.1.26-.44.22-.44.22l-2.95-.37s-.19,0-.27-.08c-.08-.08-.11-.22-.12-.26-.18-1.7-.21-6.43-.21-6.43.1-2.95,2.27-7.85,2.27-7.85.65-1.36.72-2.94.72-2.94-.02-.91.57-4.74.57-4.74.45-2.74,1.5-4.34,1.92-4.88.11-.14.24-.15.38-.03.74.62,1.64,1.21,2.67,1.72.96.46,1.91.78,2.83.99"/>
        <path class="cls-15" d="M141.31,341.14c.05.17.21.18.21.18l.22.03c.27.03.38.22.41.83.03.6-.15,3.66-1.58,4.54,0,0-.82.65-1.75.61,0,0-1.2-.02-2.22-1.34,0,0-.74-.65-.05-1.83,0,0,.3-.55.89-.89,1.07-.64.84-1.67.84-1.67,0,0-.06-.41.8-.51.2-.02.26-.12.3-.25.11-.42.38-.67.89-.66.56.02,1.04.43,1.02.91v.05"/>
        <path class="cls-15" d="M156.22,343.43l7.81,5.44c.29.27.37.34.2,1.11-.17.7.18,2.97,1.02,4.65.84,1.69,2.31,4.3,3.92,9.16,1.19,3.59,1.85,5.96,1.98,8.28,0,0,.12.38-.07.92,0,0-.2.15,0,.61,0,0,.52,1.12,1.38,3.39,0,0,.08.15,0,.21-.06.07-.21.02-.21.02l-5.23-1.08s-.07-.03-.16-.08c-.07-.07-.1-.15-.11-.18-.11-.4-.32-.81-.66-1.21,0,0-2.37-2.62-3.14-3.78,0,0-2.11-2.35-3.87-7.93,0,0-2.73-7.17-5.77-8.08-3.04-.91-5.1-2.74-3.66-6.31,0,0,1.1-3.47,4.22-4.82,0,0,1.63-.79,2.34-.3"/>
        <path class="cls-15" d="M151.64,375.31c.12-1.31-.7-3.57-.7-3.57,0,0-.73-2.23-.71-5.08,0-2.8,2.16-9.37,2.73-11.04.02-.05.04-.09.11-.13.06-.03.16,0,.19,0,2.66,1.09,5.09,7.46,5.52,8.66.08.21.03.34.02.42-.6,2.99-2.18,7.26-2.18,7.26-.68,2.41-.25,3.89-.25,3.89,0,.03.04.12.09.27.02.06-.16.15-.16.15l-4.51-.65s-.07,0-.11-.05c-.06-.05-.04-.13-.04-.15"/>
        <path class="cls-17" d="M204.46,378.27c-.09.25-.15.41-.23.67,0,.03-.06.13-.02.19.04.06.13.03.13.03l6.17-1.31s.17-.02.21-.09c.08-.08,0-.22-.02-.29-.09-.21-.09-.23-.11-.43,0-.04-.02-.12-.13-.16-.11-.06-.25,0-.25,0l-5.47,1.17s-.12.02-.18.07c-.08.05-.1.14-.11.16"/>
        <path class="cls-17" d="M225.84,377.13c0-.23-.03-.45-.04-.64,0-.03,0-.09-.05-.12-.05-.03-.13,0-.13,0l-4.87.72s-.09,0-.16.06c-.07.06-.1.13-.1.13l-.26.73s-.03.09,0,.13c.03.04.13.02.13.02l5.33-.83s.08,0,.12-.06c.03-.03.03-.11.02-.13"/>
        <path class="cls-17" d="M191.46,311.65c.1.16.18.3.25.44,0,.02.06.09.14.11.07,0,.16-.05.16-.05l3.17-2.01s.1-.03.11-.17c.02-.09-.07-.18-.11-.21-.13-.12-.26-.26-.41-.41-.02-.02-.11-.07-.2-.07-.08,0-.17.06-.17.06l-2.87,2.06s-.08.06-.1.12c0,.06,0,.11.02.14"/>
        <path class="cls-17" d="M190.78,310.38c.08.12.09.21.19.35.02.02.03.07.12.07.08,0,.15-.05.15-.05l2.65-2.07s.09-.07.11-.12c.03-.06-.03-.13-.05-.15-.17-.19-.31-.36-.42-.53-.02-.02-.05-.09-.15-.08-.09,0-.17.08-.17.08l-2.38,2.23s-.09.06-.1.13c0,.08.03.12.05.14"/>
        <path class="cls-17" d="M212.29,348.45c.21.21.23.18.32.18s.18-.07.18-.07l7.94-5.57s.1-.06.12-.11c.02-.05-.04-.13-.05-.15-.17-.19-.3-.35-.42-.53,0-.02-.06-.09-.15-.08-.1,0-.35.21-.35.21l-7.82,5.32s-.15.06-.14.26c0,.16.18.3.37.53"/>
        <path class="cls-17" d="M172.96,378.27c.09.25.14.41.23.67,0,.03.06.13,0,.19-.03.06-.13.03-.13.03l-6.16-1.31s-.17-.02-.22-.09c-.07-.08,0-.22.03-.29.08-.21.09-.23.12-.43,0-.04,0-.12.12-.16.11-.06.25,0,.25,0l5.47,1.17s.11.02.18.07.1.14.11.16"/>
        <path class="cls-17" d="M151.57,377.13c.03-.23.04-.45.05-.64,0-.03,0-.09.05-.12.05-.03.13,0,.13,0l4.87.72s.08,0,.16.06c.07.06.09.13.09.13l.27.73s.03.09,0,.13c-.03.04-.13.02-.13.02l-5.34-.83s-.07,0-.11-.06c-.04-.03-.03-.11-.03-.13"/>
        <path class="cls-17" d="M185.96,311.65c-.09.16-.18.3-.24.44-.03.02-.07.09-.14.11-.08,0-.16-.05-.16-.05l-3.18-2.01s-.11-.03-.12-.17c0-.09.09-.18.12-.21.13-.12.26-.26.41-.41.02-.02.11-.07.19-.07.1,0,.18.06.18.06l2.87,2.06s.08.06.09.12c.02.06,0,.11,0,.14"/>
        <path class="cls-17" d="M186.64,310.38c-.08.12-.09.21-.19.35,0,.02-.04.07-.12.07-.09,0-.16-.05-.16-.05l-2.65-2.07s-.09-.07-.11-.12c-.03-.06.03-.13.05-.15.17-.19.31-.36.42-.53.02-.02.06-.09.15-.08.09,0,.17.08.17.08l2.39,2.23s.08.06.08.13c0,.08-.02.12-.04.14"/>
        <path class="cls-17" d="M165.13,348.45c-.21.21-.23.18-.33.18-.08,0-.17-.07-.17-.07l-7.94-5.57s-.09-.06-.1-.11c-.03-.05.02-.13.04-.15.17-.19.3-.35.42-.53,0-.02.06-.09.14-.08.1,0,.35.21.35.21l7.84,5.32s.14.06.14.26c0,.16-.2.3-.38.53"/>
        <path class="cls-17" d="M210.59,311.7c-.26-.09-.53-.17-.81-.22-2.54-.65-5.47-.73-5.82.42-.3.94,1.68,2.23,4.22,2.87.71.19,1.41.31,2.04.4.09,0,.17-.03.18-.14.06-.57.24-2.6.31-3.15.02-.12-.08-.16-.12-.18"/>
        <path class="cls-17" d="M227.8,312.77c.62-.15.9-.24,1.55-.57,2-.97,3.79-2.54,3.29-3.36-.5-.83-4.37-.59-5.08,3.72-.06.14.07.26.23.2"/>
        <path class="cls-17" d="M166.98,311.7c.25-.09.53-.17.81-.22,2.54-.65,5.46-.73,5.82.42.29.94-1.69,2.23-4.23,2.87-.71.19-1.4.31-2.04.4-.08,0-.16-.03-.17-.14-.05-.57-.25-2.6-.32-3.15-.02-.12.08-.16.13-.18"/>
        <path class="cls-17" d="M149.77,312.77c-.62-.15-.89-.24-1.55-.57-2-.97-3.78-2.54-3.29-3.36.5-.83,4.37-.59,5.08,3.72.06.14-.07.26-.23.2"/>
        <path class="cls-22" d="M130.57,87.91c17.17-13.49,36.02-21.37,58.45-21.37s41.26,7.89,58.44,21.37c-18.12-9.53-37.96-13.18-59.73-13.18s-39.06,3.65-57.17,13.18"/>
        <path class="cls-15" d="M169.93,122.06c-3.03.27-6.4,0-6.4,0,0,0,2.27-2.59,3.03-3.43,2.15-2.39,5.26-3.75,8.72-4.23,6.46-.9,8.19,1.35,8.19,1.35,0,0-3.51,3.52-4.27,7.65,0,0-5.85-1.66-9.26-1.35"/>
        <path class="cls-17" d="M172.12,118.19c0-1.31,1.62-2.37,3.62-2.37s3.62,1.06,3.62,2.37-1.62,2.37-3.62,2.37-3.62-1.07-3.62-2.37"/>
        <path class="cls-20" d="M177.17,118.1c0-.78-.63-1.42-1.41-1.42s-1.42.63-1.42,1.42.63,1.41,1.42,1.41,1.41-.63,1.41-1.41"/>
      </g>
    </g>
  </g>
</svg>