<?xml version="1.0" encoding="UTF-8"?>
<svg id="Layer_2" data-name="Layer 2" xmlns="http://www.w3.org/2000/svg" viewBox="0 0 1791.24 711.1">
  <defs>
    <style>
      .cls-1 {
        fill: #015cbb;
      }

      .cls-2 {
        fill: #e2221c;
      }
    </style>
  </defs>
  <g id="Layer_1-2" data-name="Layer 1">
    <g>
      <g>
        <rect class="cls-2" width="119.77" height="128.8"/>
        <path class="cls-1" d="M457.93,11.97c106.78,49.31,158.87,140.41,157.22,274.39-14.18,120.08-70.26,247.41-190.59,281.61-11.3,3.21-23.02,4.75-34.77,4.75H0V162.76h119.77v283.02h279.13c77.22-36.69,103.6-97.68,110.81-159.42-3.23-85.87-43.53-138.92-122.73-157.56h-236.38V0h252.95c18.78,0,37.33,4.1,54.38,11.97Z"/>
      </g>
      <path class="cls-1" d="M1014.08,402.17c.48-8.86.38-17.77-.29-26.64v-.2c-.1-1.38-.21-2.76-.33-4.14-3.24-37.84-15.7-75.53-38.76-104.89-43.27-56.79-123.28-82.44-192.28-63.57-89.67,22.88-150.76,119.17-139.77,211.01,16.4,159.86,217.62,210.69,324.06,101.23,22.33-22.43,36.52-50.99,43.19-81.57h-82.77c-4.32,12.98-10.71,24.44-18.49,32.17l-.64.64c-20.22,20.58-46.19,26.05-76.29,26.05-24.98,0-48.84-4.83-66.69-19.03-18.43-14.68-28.29-45.17-30.87-70.08l-.07-.64-.04-.34h280.04ZM733.1,371.19c4.76-43.8,36.94-68.71,75.22-78.37l.64-.16.64-.18c7.56-2.04,15.63-3.08,23.96-3.08,30.52,0,61.04,14.02,77.75,35.71l.35.45.35.44c9.07,11.42,15.7,27.38,18.99,45.19h-197.9Z"/>
      <path class="cls-1" d="M1790.94,400.98c.48-8.86.38-17.77-.29-26.64v-.2c-.1-1.38-.21-2.76-.33-4.14-3.24-37.84-15.7-75.53-38.76-104.89-43.27-56.79-123.28-82.44-192.28-63.57-89.67,22.88-150.76,119.17-139.77,211.01,16.4,159.86,217.62,210.69,324.06,101.23,22.33-22.43,36.52-50.99,43.19-81.57h-82.77c-4.32,12.98-10.71,24.44-18.49,32.17l-.64.64c-20.22,20.58-46.19,26.05-76.29,26.05-24.98,0-48.84-4.83-66.69-19.03-18.43-14.68-28.29-45.17-30.87-70.08l-.07-.64-.04-.34h280.04ZM1509.96,370c4.76-43.8,36.94-68.71,75.22-78.37l.64-.16.64-.18c7.56-2.04,15.63-3.08,23.96-3.08,30.52,0,61.04,14.02,77.75,35.71l.35.45.35.44c9.07,11.42,15.7,27.38,18.99,45.19h-197.9Z"/>
      <polygon class="cls-1" points="1402.97 198.89 1204.09 711.1 1112.45 711.1 1164.32 549.94 1044.5 198.89 1135.52 198.89 1216.03 445.21 1302.7 198.89 1402.97 198.89"/>
    </g>
  </g>
</svg>