<?xml version="1.0" encoding="UTF-8"?>
<svg id="Layer_2" data-name="Layer 2" xmlns="http://www.w3.org/2000/svg" viewBox="0 0 1549.43 794.39">
  <defs>
    <style>
      .cls-1 {
        fill: #fff;
      }

      .cls-2 {
        fill: #211821;
      }

      .cls-3 {
        fill: #f77b29;
      }
    </style>
  </defs>
  <g id="Layer_1-2" data-name="Layer 1">
    <g>
      <path class="cls-2" d="M407.14,183.97c17.13-30.16,38.24-57.85,63.09-82.69,35.62-35.62,77.1-63.59,123.3-83.14,10.18-4.31,20.49-8.16,30.93-11.55H0v787.58h174.95l-.2.22h410.43c-31.88-12.09-60.73-30.35-90.73-56.26-36.81-31.77-68.74-73.61-92.92-121.62h-18.72l-187.1,155.7,141.35-155.42h-136.35v-141.55h158.16c-1.51-13.41-2.27-26.73-2.27-39.89v-59.75c0-24.73,2.28-49.1,6.83-72.98h-162.71v-118.65h206.42Z"/>
      <path class="cls-2" d="M1457.09,371.16c53.18-50.89,55.36-123.79,55.36-123.79,15.26-124.86-89.24-233.09-260.32-233.42h-33l-167.07,170.15-118.15,118.58-67.61,67.86-3.25,3.27v420.16h422.75c145.59,0,263.62-118.03,263.62-263.62v-8.82c0-53.75-40.91-114.2-92.34-150.35ZM1067.9,184.09h164.9c53.18,0,86.13,20.65,91.97,49.61,1.29,6.41,2.09,12.9,2.09,19.1,0,.77,0,1.53-.04,2.31-1.05,33.33-29.13,59.52-80.54,59.52h-178.38v-130.54ZM1358.75,556.89c0,45.11-36.57,81.68-81.68,81.68h-209.18v-163.36h209.18c45.11,0,81.68,36.57,81.68,81.68h0Z"/>
      <g>
        <path class="cls-3" d="M842.36,6.82v168.37c-22.19-4.8-96.61-13.74-134.52.34-74.92,22.84-129.75,93.76-133.78,175.76-.08,1.66-.14,3.33-.18,4.99l-178.43,196.17c-8.44-25.2-14.45-51.2-17.54-77.25-1.58-13.31-2.4-26.63-2.4-39.87v-59.72c0-24.98,2.48-49.36,7.22-72.94,8.55-42.65,24.47-82.63,46.35-118.58,46.82-76.91,121.01-135.33,209.04-161.75,33.63-10.11,69.28-15.53,106.19-15.53h98.05Z"/>
        <path class="cls-3" d="M842.36,618.55v175.41h-108.23c-37.21,1.3-68.45-.27-96.02-5.14-51.61-9.13-90.34-29.89-131.31-65.26-32.64-28.19-61.41-65.22-83.64-106.88-4.13-7.7-8.01-15.58-11.67-23.58l162.76-135.44.34.42h0c1.27,14.46,4.08,29.14,8.29,43.54,9.83,33.56,27.34,65.55,50.98,89.45,29.49,29.81,69.34,45.55,110.57,45.55,25.12,0,50.09-3.68,74.14-10.91l23.78-7.15Z"/>
        <path class="cls-1" d="M574.55,457.41l-.29.24-162.76,135.44-15.05,12.53-13.28,11.05-189.69,157.86,143.57-157.86,43.92-48.29,14.48-15.94,178.43-196.17c-.04,1.56-.06,3.13-.06,4.7v79.6c0,5.55.24,11.16.73,16.82Z"/>
        <path class="cls-3" d="M1217.12,0l-558.09,563.78-59.9-75.01-.18-.21h0s-24.35-30.49-24.35-30.49h0c-.02-.24-.04-.45-.05-.67-.49-5.66-.73-11.27-.73-16.82v-79.6c0-1.57.02-3.14.06-4.7l2.6-2.87,16.28,14.28,75.59,66.34L1217.12,0Z"/>
      </g>
    </g>
  </g>
</svg>