<svg xmlns="http://www.w3.org/2000/svg" viewBox="0 0 195.56 50"><defs><style>.a{fill:#101820;}.b{fill:#ffb71b;}</style></defs><path class="a" d="M122.18,25.45a29.8,29.8,0,0,0-3.46-1.5,7.24,7.24,0,0,1-3.12-1.87,3.52,3.52,0,0,1-.74-2.18,3.69,3.69,0,0,1,1.26-2.84,4.51,4.51,0,0,1,3.14-1.14,9.54,9.54,0,0,1,4.66,1.6V15.74a9.83,9.83,0,0,0-4.81-1.32,6,6,0,0,0-4.24,1.63A5.15,5.15,0,0,0,113.11,20a4.62,4.62,0,0,0,.73,2.71,5.05,5.05,0,0,0,1.76,1.63,33.6,33.6,0,0,0,3.45,1.49,7.27,7.27,0,0,1,3.21,2,4,4,0,0,1,.79,2.4,3.91,3.91,0,0,1-1.28,3,4.38,4.38,0,0,1-3.12,1.2q-2.22,0-5.25-2.23V34a9.64,9.64,0,0,0,5.34,1.83A6,6,0,0,0,123,34.2a5.41,5.41,0,0,0,1.76-4.07,5.19,5.19,0,0,0-.76-2.95,5.25,5.25,0,0,0-1.85-1.73"></path><polygon class="a" points="134.96 22.97 127.99 14.69 126.04 14.69 134.14 24.37 134.14 35.59 135.75 35.59 135.75 24.37 143.85 14.69 141.88 14.69 134.96 22.97"></polygon><polygon class="a" points="163.4 32.96 147.6 14.69 146.24 14.69 146.24 35.59 147.85 35.59 147.85 17.33 163.68 35.59 165.01 35.59 165.01 14.69 163.4 14.69 163.4 32.96"></polygon><polygon class="a" points="183.34 14.69 181.33 14.69 171.33 25.09 171.33 14.69 169.72 14.69 169.72 35.59 171.33 35.59 171.33 25.15 182.24 35.59 184.29 35.59 173.36 25.13 183.34 14.69"></polygon><path class="a" d="M14.1,25.45A29.8,29.8,0,0,0,10.64,24a7.24,7.24,0,0,1-3.12-1.87,3.47,3.47,0,0,1-.75-2.18A3.69,3.69,0,0,1,8,17.06a4.51,4.51,0,0,1,3.14-1.14,9.57,9.57,0,0,1,4.67,1.6V15.74A9.87,9.87,0,0,0,11,14.42a6,6,0,0,0-4.23,1.63A5.15,5.15,0,0,0,5,20a4.69,4.69,0,0,0,.72,2.71,5.14,5.14,0,0,0,1.76,1.63A35.07,35.07,0,0,0,11,25.8a7.23,7.23,0,0,1,3.2,2A4,4,0,0,1,15,30.2a3.9,3.9,0,0,1-1.27,3,4.41,4.41,0,0,1-3.13,1.2q-2.22,0-5.25-2.23V34a9.64,9.64,0,0,0,5.34,1.83A6,6,0,0,0,15,34.2a5.41,5.41,0,0,0,1.76-4.07A5.27,5.27,0,0,0,16,27.18a5.33,5.33,0,0,0-1.85-1.73"></path><path class="a" d="M35.74,26.18a8.56,8.56,0,0,1-2,6,6.69,6.69,0,0,1-5.14,2.13,6.68,6.68,0,0,1-5.11-2.11,8.22,8.22,0,0,1-2-5.84V14.69H19.91V26.47a9.49,9.49,0,0,0,2.43,6.88,8.38,8.38,0,0,0,6.28,2.51,8.32,8.32,0,0,0,6.29-2.54c1.62-1.7,2.44-4.11,2.44-7.23V14.69H35.74Z"></path><polygon class="a" points="58.84 32.96 43.03 14.69 41.67 14.69 41.67 35.59 43.28 35.59 43.28 17.33 59.12 35.59 60.45 35.59 60.45 14.69 58.84 14.69 58.84 32.96"></polygon><path class="b" d="M100.15,34.21,86.87,41.89h0l-12.3-7.12V25a4.22,4.22,0,0,1,4.22-4.22h8.08V25l-11,6.34,11,6.33V33.45H95A8.44,8.44,0,0,0,103.38,25V13.44L86.87,3.88h0l-15.38,9A14,14,0,0,0,68.73,15V21.8a10.61,10.61,0,0,1,4.86-6L86.87,8.1h0l12.3,7.12V25A4.22,4.22,0,0,1,95,29.22H86.87V25l10.94-6.34L86.87,12.32v4.23H78.79A8.44,8.44,0,0,0,70.36,25V36.56l16.51,9.56h0l15.37-8.95A13.75,13.75,0,0,0,105,35V28.2a10.64,10.64,0,0,1-4.86,6"></path><path class="a" d="M189,16.07a1,1,0,0,0-1.13-1h-1.19v3.23h.46v-1.2h.66l.56,1.2h.51L188.27,17a1,1,0,0,0,.72-1m-1.08.6h-.78v-1.2h.76a.57.57,0,0,1,.62.6.58.58,0,0,1-.6.6"></path><path class="a" d="M187.83,14a2.7,2.7,0,1,0,2.7,2.7,2.7,2.7,0,0,0-2.7-2.7m0,5.2a2.51,2.51,0,1,1,2.5-2.5,2.51,2.51,0,0,1-2.5,2.5"></path></svg>