<?xml version="1.0" encoding="UTF-8"?>
<svg id="Layer_2" data-name="Layer 2" xmlns="http://www.w3.org/2000/svg" viewBox="0 0 213.56 64.19">
  <defs>
    <style>
      .cls-1 {
        fill: #28beef;
      }

      .cls-2 {
        fill: #fff;
      }

      .cls-3 {
        fill: #ec1c24;
      }
    </style>
  </defs>
  <g id="Layer_1-2" data-name="Layer 1">
    <g>
      <g id="uuid-31925932-d45f-4fe0-9174-6edd78aceb73" data-name="Layer 1-2">
        <g>
          <rect class="cls-1" x="1.53" y="48.33" width="210.23" height="15.86"/>
          <g>
            <path class="cls-2" d="M10.09,57.78h0s1.99,0,1.99,0v1.1c-.26.21-.58.38-.94.52-.37.14-.74.22-1.1.22-.74,0-1.34-.26-1.79-.77s-.68-1.28-.68-2.3c0-.95.23-1.67.68-2.15.45-.48,1.06-.73,1.82-.73.5,0,.92.12,1.26.37.34.24.56.58.69,1l1.73-.33c-.17-.79-.56-1.42-1.16-1.86-.6-.45-1.44-.68-2.51-.68-.82,0-1.51.14-2.07.43-.73.37-1.28.91-1.65,1.61-.38.7-.57,1.5-.57,2.4,0,.83.17,1.59.51,2.3s.84,1.24,1.51,1.62,1.46.57,2.36.57c.71,0,1.42-.14,2.11-.4.69-.27,1.22-.58,1.58-.93v-3.44h-3.75v1.46Z"/>
            <path class="cls-2" d="M60.71,57.88c-.25-.26-.56-.5-.93-.73.75-.11,1.33-.37,1.71-.8.38-.42.57-.96.57-1.6,0-.51-.12-.97-.37-1.36-.25-.4-.58-.68-1-.83-.41-.15-1.09-.23-2.01-.23h-3.67v8.63h1.74v-3.6h.36c.4,0,.7.03.88.1.18.06.36.19.52.36.16.17.47.6.92,1.27l1.26,1.88h2.08l-1.06-1.68c-.41-.67-.74-1.14-.99-1.4ZM58.04,55.97h-1.29s0-2.19,0-2.19h1.36c.71,0,1.13,0,1.27.03.28.05.5.16.66.34.15.18.23.41.23.71,0,.26-.06.47-.18.65-.12.17-.28.3-.49.37-.21.07-.73.1-1.56.1Z"/>
            <path class="cls-2" d="M107.08,52.18c-.7,0-1.32.11-1.86.34-.4.17-.77.42-1.11.77-.34.35-.61.74-.8,1.18-.26.6-.39,1.34-.39,2.22,0,1.38.38,2.45,1.13,3.24.76.78,1.8,1.17,3.06,1.17s2.28-.39,3.04-1.18c.75-.79,1.13-1.86,1.13-3.27s-.38-2.5-1.14-3.29c-.76-.79-1.78-1.18-3.05-1.18ZM108.8,58.86c-.45.5-1.02.75-1.71.75s-1.27-.25-1.72-.75c-.45-.5-.68-1.24-.68-2.22h0c0-1,.22-1.74.66-2.23s1.02-.74,1.74-.74,1.29.24,1.73.73.65,1.22.65,2.22-.22,1.75-.67,2.25Z"/>
            <path class="cls-2" d="M157.31,57.09c0,.68-.03,1.17-.08,1.47s-.2.54-.45.74c-.25.2-.64.3-1.12.3s-.87-.11-1.15-.32c-.28-.21-.46-.49-.53-.85-.04-.22-.06-.7-.06-1.44v-4.67h-1.75s0,4.6,0,4.6c0,.97.06,1.7.17,2.19.08.34.24.65.49.96.25.3.59.55,1.01.74.42.19,1.05.29,1.87.29.68,0,1.23-.09,1.66-.26.42-.18.76-.41,1.02-.71s.43-.66.52-1.09c.1-.43.14-1.16.14-2.2v-4.53h-1.74v4.78Z"/>
            <path class="cls-2" d="M207.33,53.3c-.34-.43-.75-.72-1.24-.84-.32-.08-1.01-.13-2.07-.13h-2.8v8.63h1.75v-3.26h1.13c.79,0,1.39-.04,1.81-.12.31-.07.61-.2.9-.41.3-.2.54-.49.74-.85.19-.36.29-.81.29-1.34,0-.69-.16-1.25-.5-1.68ZM205.83,55.67c-.13.19-.31.34-.54.42s-.69.13-1.38.13h-.95v-2.45h.84c.63,0,1.05.02,1.25.06.28.05.52.18.7.38s.28.46.28.77c0,.26-.06.48-.2.67Z"/>
          </g>
        </g>
      </g>
      <g>
        <path d="M47.21,14.28c-8.59,0-15.57,5.88-15.57,13.11s6.99,13.11,15.57,13.11,15.57-5.88,15.57-13.11-6.99-13.11-15.57-13.11ZM47.21,38.81c-7.66,0-13.88-5.12-13.88-11.42s6.23-11.42,13.88-11.42,13.88,5.12,13.88,11.42-6.23,11.42-13.88,11.42Z"/>
        <path d="M47.21,21.68c-4.08,0-7.4,2.56-7.4,5.71s3.32,5.71,7.4,5.71,7.4-2.56,7.4-5.71-3.32-5.71-7.4-5.71ZM47.21,31.41c-3.09,0-5.71-1.84-5.71-4.02s2.61-4.02,5.71-4.02,5.71,1.84,5.71,4.02-2.61,4.02-5.71,4.02Z"/>
        <path d="M47.21,17.24c-6.97,0-12.61,4.54-12.61,10.15s5.65,10.15,12.61,10.15,12.61-4.54,12.61-10.15-5.65-10.15-12.61-10.15ZM47.21,34.37c-4.79,0-8.67-3.12-8.67-6.98s3.88-6.98,8.67-6.98,8.67,3.12,8.67,6.98-3.88,6.98-8.67,6.98Z"/>
        <path d="M90.07,27.92c-1.36,0-2.52.51-3.44,1.43-1.26,1.26-3.39,2.07-5.43,2.07-3.07,0-5.66-1.84-5.66-4.02s2.59-4.02,5.66-4.02c2.1,0,4.26.84,5.51,2.15.91.95,2.18,1.48,3.49,1.48.95,0,1.86-.28,2.66-.8,1.3-.86,2.09-2.24,2.17-3.8.07-1.56-.58-3.01-1.8-3.99-3.21-2.59-7.71-4.13-12.03-4.13-8.55,0-15.51,5.88-15.51,13.11s6.96,13.11,15.51,13.11c4.29,0,8.6-1.45,11.84-3.99,1.04-.81,1.71-2.04,1.82-3.36.12-1.33-.33-2.65-1.21-3.65-.91-1.02-2.22-1.59-3.58-1.59ZM92,35.18c-2.95,2.3-6.88,3.63-10.79,3.63-7.62,0-13.81-5.13-13.81-11.42s6.2-11.42,13.81-11.42h0c3.95,0,8.05,1.41,10.97,3.76.79.64,1.21,1.58,1.16,2.6-.05,1.01-.56,1.91-1.41,2.47-.51.34-1.11.52-1.73.52-.85,0-1.68-.35-2.26-.97-1.58-1.65-4.16-2.67-6.73-2.67-4.06,0-7.36,2.56-7.36,5.71s3.3,5.71,7.36,5.71c2.5,0,5.04-.98,6.63-2.56.6-.6,1.4-.93,2.24-.93s1.73.37,2.31,1.03c.58.64.86,1.51.79,2.37-.07.86-.5,1.65-1.18,2.18Z"/>
        <path d="M88.72,31.44c-1.78,1.78-4.62,2.93-7.52,2.93h0c-4.77,0-8.62-3.12-8.62-6.98s3.86-6.98,8.62-6.98c2.97,0,5.88,1.21,7.65,3.06.63.65,1.62.76,2.38.27,1.06-.7,1.13-2.22.14-3.02-2.64-2.13-6.4-3.48-10.17-3.48-6.93,0-12.55,4.54-12.55,10.15s5.62,10.15,12.55,10.15c3.7,0,7.38-1.3,10.01-3.35.84-.66.94-1.9.23-2.7-.72-.8-1.95-.81-2.72-.05Z"/>
        <path d="M28.01,20.05c.03-2.57-.95-4.95-2.84-6.89-2.73-2.78-7.12-4.17-12.07-4.17h-7.14c-3.29,0-5.96,2.67-5.96,5.96v18.89c0,3.21,2.82,5.82,6.03,5.82s5.82-2.61,5.82-5.82v-1.7l3.88,4.74c1.45,1.77,3.59,2.78,5.88,2.78,2.05,0,3.86-1.15,4.74-3,.88-1.85.61-3.98-.69-5.56,0,0,0,0-.01-.01l-2.09-2.48c2.91-2.15,4.51-5.18,4.46-8.55ZM21.01,28.2l3.34,3.97c.88,1.07,1.06,2.52.46,3.77-.59,1.25-1.82,2.03-3.21,2.03-1.78,0-3.44-.79-4.57-2.16l-4.9-5.98h-1.98v4.02c0,2.27-1.85,4.12-4.12,4.12s-4.34-1.85-4.34-4.12V14.96c0-2.36,1.92-4.27,4.27-4.27h7.15c4.49,0,8.45,1.2,10.86,3.66,1.57,1.61,2.39,3.58,2.35,5.7.06,3.4-1.85,6.31-5.32,8.15Z"/>
        <path d="M12.96,12.17h-6.94c-1.43,0-2.58,1.15-2.58,2.58v19.1c0,1.34,1.09,2.43,2.43,2.43s2.43-1.09,2.43-2.43v-5.71h4.47l5.41,6.6c.8.98,2,1.54,3.26,1.54,1.57,0,2.43-1.83,1.44-3.04l-4.82-5.73s.58-.14.87-.27c3.45-1.44,5.62-4,5.55-7.19.1-4.73-5.16-7.89-11.52-7.88ZM12.74,24.85h0s-4.44,0-4.44,0v-9.41h4.23c3.58-.01,7.29,1.05,7.4,4.62.09,3.59-3.88,4.72-7.18,4.79Z"/>
        <path d="M13.05,16.98h-2.85v6.34h2.99c2.41,0,5.64-1.13,4.67-4.14-.73-1.87-3.04-2.18-4.82-2.2ZM15.61,21.35c-.98.66-2.39.55-3.51.55v-3.38h.93c.93,0,1.95.02,2.67.69.66.61.7,1.62-.09,2.15Z"/>
      </g>
      <g>
        <path d="M178.87,18.57c-2.96-2.37-7-3.68-10.84-3.66h-.09c-7.09-.07-15.06,4.63-15.52,12.01-.23,6.46,5.48,11.23,11.79,12.56,5.85,1.26,12.61-.55,16.57-5.08,4.45-5,3.32-11.79-1.91-15.82ZM172.73,38.11c-4.34,1.33-9.34.76-13.16-1.67-2.63-1.65-4.7-4.24-5.28-7.23-1.5-7.63,6.49-13.42,13.68-13.24h.04c6.58-.09,13.75,4.45,13.86,11.35-.03,5.24-4.03,9.2-9.13,10.79Z"/>
        <path d="M161.22,25.09c-2.44,4.38,2.47,8.14,6.74,8.02h.04c4.56.12,9.53-4.03,6.42-8.51-3-4.09-10.71-3.79-13.2.49ZM168.03,32.06h-.09c-2.98.06-6.11-2.12-5.61-5.29.95-5.41,10.58-5.33,11.34.16.38,3.15-2.79,5.2-5.63,5.14Z"/>
        <path d="M168,17.24h-.04c-6.42-.17-13.77,4.87-12.43,11.76.54,2.68,2.44,4.98,4.82,6.44,3.45,2.14,7.93,2.65,11.83,1.51,4.67-1.39,8.39-4.89,8.41-9.66-.16-6.19-6.7-10.11-12.59-10.04ZM168,34.37h-.05c-5.75.12-11.35-5.41-7.26-10.74,3.62-4.56,12.06-4.19,15.06.69,3.14,5.25-2.42,10.18-7.75,10.05Z"/>
        <path d="M144.29,22.1c-2.57,0-4.65,2.05-4.65,4.57v9.89c0,2.52,2.09,4.57,4.65,4.57s4.65-2.05,4.65-4.57v-9.89c0-2.52-2.09-4.57-4.65-4.57ZM147.25,36.56c0,1.59-1.33,2.88-2.96,2.88s-2.96-1.29-2.96-2.88v-9.89c0-1.59,1.33-2.88,2.96-2.88s2.96,1.29,2.96,2.88v9.89Z"/>
        <path d="M144.29,24.85c-.93,0-1.69.76-1.69,1.69v10.15c0,.93.76,1.69,1.69,1.69s1.69-.76,1.69-1.69v-10.15c0-.93-.76-1.69-1.69-1.69Z"/>
        <path d="M208.7,14.68h0c-2.68,0-4.86,2.18-4.86,4.86v4.55l-3.41-3.56c-.87-.91-1.75-1.77-2.61-2.56-1.15-1.06-2.08-1.8-2.83-2.27,0,0-.02,0-.02-.01l-.03-.02s-.01,0-.02-.01c-.75-.44-1.92-.97-3.26-.97-1.88,0-3.41,1.05-4.09,2.79-.22.55-.33,1.16-.33,1.8v15.94c0,2.68,2.18,4.86,4.86,4.86s4.86-2.18,4.86-4.86v-4.54l2.12,2.22c1.45,1.52,2.97,3.01,4.5,4.44,0,0,0,0,.01.01l.02.02s.01,0,.02.02c.85.75,1.56,1.3,2.17,1.69,0,0,.01,0,.02.01l.03.02s.01,0,.02.01c.62.36,1.85.97,3.26.97,1.88,0,3.41-1.04,4.09-2.79.22-.55.33-1.16.33-1.81v-15.94c0-2.68-2.18-4.86-4.86-4.86ZM211.87,35.49c0,.43-.07.83-.21,1.19-.42,1.09-1.34,1.71-2.52,1.71-1,0-1.93-.46-2.4-.74l-.03-.02c-.53-.34-1.17-.84-1.96-1.53l-.02-.02c-1.51-1.4-3-2.87-4.43-4.36l-5.03-5.26v8.76c0,1.75-1.42,3.17-3.17,3.17s-3.17-1.42-3.17-3.17v-15.94c0-.43.07-.83.21-1.19.42-1.09,1.34-1.71,2.52-1.71,1,0,1.93.46,2.4.74l.03.02c.67.42,1.51,1.11,2.59,2.1.83.76,1.68,1.59,2.53,2.48l6.32,6.61v-8.77c0-1.75,1.42-3.17,3.17-3.17h0c1.75,0,3.17,1.41,3.17,3.16v15.94Z"/>
        <path d="M208.7,17.64c-1.05,0-1.9.85-1.9,1.9v11.93l-8.51-8.9c-.8-.83-1.62-1.64-2.47-2.42-.78-.72-1.69-1.5-2.42-1.96-1.1-.65-2.58-.96-3.08.34-.09.23-.12.48-.12.74v15.94c0,1.05.85,1.9,1.9,1.9s1.9-.85,1.9-1.9v-11.93l7.22,7.55c1.42,1.48,2.87,2.92,4.38,4.31.62.54,1.27,1.07,1.81,1.42,1.1.65,2.58.96,3.08-.34.09-.23.12-.48.12-.74v-15.94c0-1.05-.85-1.9-1.9-1.9Z"/>
        <path class="cls-3" d="M144.18,20.23c1.94,0,3.51-1.57,3.51-3.51s-1.57-3.51-3.51-3.51-3.51,1.57-3.51,3.51,1.57,3.51,3.51,3.51ZM144.18,14.3c1.33,0,2.41,1.08,2.41,2.41s-1.08,2.41-2.41,2.41-2.41-1.08-2.41-2.41,1.08-2.41,2.41-2.41Z"/>
        <path class="cls-3" d="M144.18,21.05c2.39,0,4.34-1.94,4.34-4.34s-1.94-4.34-4.34-4.34-4.34,1.94-4.34,4.34,1.94,4.34,4.34,4.34ZM144.18,12.8c2.16,0,3.91,1.76,3.91,3.91s-1.76,3.91-3.91,3.91-3.91-1.76-3.91-3.91,1.76-3.91,3.91-3.91Z"/>
        <path class="cls-3" d="M144.18,18.72c1.11,0,2.01-.9,2.01-2.01s-.9-2.01-2.01-2.01-2.01.9-2.01,2.01.9,2.01,2.01,2.01ZM144.18,15.13c.88,0,1.58.71,1.58,1.58s-.71,1.58-1.58,1.58-1.59-.71-1.59-1.58.71-1.58,1.59-1.58Z"/>
      </g>
      <path class="cls-1" d="M137.44,47.2h0c-3.5-2.86-12.33-13.16-20.7-23.6,6.23-8.35,13.64-17.28,18.86-22.22,2.28-.11,4.69-.37,7.22-.85V.11h-21.79v.42c2.89.34,6.3.78,10.18.89-5.73,7.89-11.19,14.39-16.43,19.73-6.3-7.93-12.08-15.6-14.77-19.79,4.28-.11,8.21-.47,10.45-1.05-9.42-.34-18.66-.41-27.71-.21,1.53.51,4.13.86,7.18,1.08,5.19,5.52,12.6,14.28,19.44,22.72-6.33,8.55-14.03,17.86-19.4,22.94-2.28.11-4.69.37-7.22.85v.42h21.79v-.42c-2.89-.34-6.3-.78-10.18-.89,5.96-8.2,11.63-14.91,17.06-20.37,7.53,9.37,14,17.89,15.49,20.54-3.81.05-7.63.26-10.74.72v.42h26.86v-.42c-1.15-.18-3.14-.37-5.59-.5ZM129.43,46.96c-4.27-4.94-35.17-43.06-37.27-45.66.92.04,1.86.07,2.81.08,9.6,12.19,22.85,28.29,37.24,45.61-.91-.02-1.84-.03-2.78-.03Z"/>
    </g>
  </g>
</svg>